<svg xmlns="http://www.w3.org/2000/svg" version="1.1" xmlns:xlink="http://www.w3.org/1999/xlink" xmlns:svgjs="http://svgjs.dev/svgjs" viewBox="0 0 800 800" opacity="0.25"><defs><symbol id="bbburst-shape-1" viewBox="0 0 194 167"><path d="m97 0 96.129 166.5H.871L97 0Z"></path></symbol><symbol id="bbburst-shape-4" viewBox="0 0 149 143"><path d="M71.647 2.781c.898-2.764 4.808-2.764 5.706 0l15.445 47.534a3 3 0 0 0 2.853 2.073h49.98c2.906 0 4.115 3.719 1.764 5.427L106.96 87.193a2.999 2.999 0 0 0-1.09 3.354l15.445 47.534c.898 2.764-2.266 5.062-4.617 3.354l-40.435-29.378a3 3 0 0 0-3.526 0l-40.435 29.378c-2.351 1.708-5.515-.59-4.617-3.354L43.13 90.547a3 3 0 0 0-1.09-3.354L1.605 57.815c-2.35-1.708-1.142-5.427 1.764-5.427h49.98a3 3 0 0 0 2.853-2.073L71.647 2.781Z"></path></symbol><symbol id="bbburst-shape-8" viewBox="0 0 87 168"><path d="m12 12 31.2546 18.0749c16.4102 9.4902 20.014 31.6325 7.4603 45.8369L36.3296 92.1884c-12.5684 14.2206-8.9394 36.3916 7.5068 45.8636L75 156" stroke-width="14" stroke-linecap="round" stroke-linejoin="round"></path></symbol><symbol id="bbburst-shape-10" viewBox="0 0 145 145"><circle cx="72.5" cy="72.5" r="61.5" fill="none" stroke-width="22"></circle></symbol></defs><use xlink:href="#bbburst-shape-4" width="16.670843800683944" opacity="0.5964469682164674" transform="matrix(0.9855759813113485,-0.16923352227668298,0.16923352227668298,0.9855759813113485,181.48965501843372,119.63251950874474)" fill="#b666d2"></use><use xlink:href="#bbburst-shape-8" width="8.936482443045572" opacity="0.856345247904156" transform="matrix(0.9124516279534729,-0.40918458749695974,0.40918458749695974,0.9124516279534729,171.46680898088903,58.85770135193599)" fill="none" stroke="grey"></use><use xlink:href="#bbburst-shape-4" width="24.305544355986772" opacity="0.5125406543703817" transform="matrix(0.941005292405801,-0.3383918433772792,0.3383918433772792,0.941005292405801,469.02870825524894,-11.534220258034281)" fill="#b666d2"></use><use xlink:href="#bbburst-shape-4" width="22.35727666163759" opacity="0.36891352904254615" transform="matrix(0.9977700708327565,0.06674493052207192,-0.06674493052207192,0.9977700708327565,174.5901701545821,150.47079890353274)" fill="#e2d810"></use><use xlink:href="#bbburst-shape-4" width="38.525696814677204" opacity="0.0950148291062759" transform="matrix(0.9687748903211025,-0.2479419526488725,0.2479419526488725,0.9687748903211025,-7.361528787341754,-269.0884517235219)" fill="grey"></use><use xlink:href="#bbburst-shape-4" width="18.804893237694948" opacity="0.6167135706231952" transform="matrix(0.7897134939972649,-0.6134758327747165,0.6134758327747165,0.7897134939972649,181.43824112958004,258.9417191087628)" fill="#e2d810"></use><use xlink:href="#bbburst-shape-4" width="4.223641845495174" opacity="0.9702322298866222" transform="matrix(0.9476924821988709,0.3191848354539148,-0.3191848354539148,0.9476924821988709,520.271943661677,7.993465252746944)" fill="grey"></use><use xlink:href="#bbburst-shape-10" width="6.758166129381869" opacity="0.8303140473044395" transform="matrix(0.7440881613031327,-0.6680814383056329,0.6680814383056329,0.7440881613031327,204.93324340253554,120.54461733567388)" fill="none" stroke="grey"></use><use xlink:href="#bbburst-shape-4" width="19.935119515183978" opacity="0.43317671048463624" transform="matrix(0.9790738446455246,-0.20350529902445072,0.20350529902445072,0.9790738446455246,547.5819229630845,-79.38575455458641)" fill="#b666d2"></use><use xlink:href="#bbburst-shape-10" width="10.06311039725136" opacity="0.7617120205447521" transform="matrix(0.872167934442572,-0.4892065965726315,0.4892065965726315,0.872167934442572,306.7740459053401,62.667460608478564)" fill="none" stroke="#e2d810"></use><use xlink:href="#bbburst-shape-4" width="6.227641912944808" opacity="0.8439555352074339" transform="matrix(0.9891532888534373,-0.1468869332188143,0.1468869332188143,0.9891532888534373,336.7053176972337,75.00646514316969)" fill="grey"></use><use xlink:href="#bbburst-shape-10" width="8.764838536469977" opacity="0.8249779771169389" transform="matrix(0.9618505434466563,-0.2735754595561742,0.2735754595561742,0.9618505434466563,269.0254807387072,93.28855410958465)" fill="none" stroke="grey"></use><use xlink:href="#bbburst-shape-10" width="21.07462157881026" opacity="0.38893288721560304" transform="matrix(0.7366591911905191,0.6762641762170536,-0.6762641762170536,0.7366591911905191,908.3425060896425,221.88379281209922)" fill="none" stroke="grey"></use><use xlink:href="#bbburst-shape-10" width="19.828707949753372" opacity="0.5541426530692197" transform="matrix(0.8120245331096092,-0.5836233011353481,0.5836233011353481,0.8120245331096092,-18.990910496056586,174.52700160386354)" fill="none" stroke="#b666d2"></use><use xlink:href="#bbburst-shape-10" width="7.256702339129552" opacity="0.8334174146120551" transform="matrix(0.9732041761870716,-0.2299426699245778,0.2299426699245778,0.9732041761870716,321.265421529333,-61.508782749599675)" fill="none" stroke="#e2d810"></use><use xlink:href="#bbburst-shape-8" width="7.250936622553314" opacity="0.9156664054184147" transform="matrix(0.9999650996521761,0.008354608166372597,-0.008354608166372597,0.9999650996521761,364.5284885665217,-14.229536999665982)" fill="none" stroke="grey"></use><use xlink:href="#bbburst-shape-4" width="6.078101263336691" opacity="0.8688743691401757" transform="matrix(0.9971832081394427,0.07500432923991025,-0.07500432923991025,0.9971832081394427,419.4116301949326,59.42460279560163)" fill="#b666d2"></use><use xlink:href="#bbburst-shape-10" width="8.344356186231083" opacity="0.8127284804273104" transform="matrix(0.951311349106553,0.30823159646776976,-0.30823159646776976,0.951311349106553,435.05986570106717,19.383066251774835)" fill="none" stroke="grey"></use><use xlink:href="#bbburst-shape-1" width="6.30154894615643" opacity="0.870759835405416" transform="matrix(0.9947398966970616,-0.10243308996178506,0.10243308996178506,0.9947398966970616,366.96596534818747,59.52918110141405)" fill="grey"></use><use xlink:href="#bbburst-shape-8" width="12.423902503012059" opacity="0.7451758188134402" transform="matrix(0.8585979718193907,0.5126495126181521,-0.5126495126181521,0.8585979718193907,518.4992071374347,134.31809297208895)" fill="none" stroke="#b666d2"></use><use xlink:href="#bbburst-shape-4" width="35.81260087193293" opacity="0.21627908807181795" transform="matrix(0.9434029558346678,0.3316487040867365,-0.3316487040867365,0.9434029558346678,213.75202497773518,198.8653464197227)" fill="#b666d2"></use><use xlink:href="#bbburst-shape-4" width="12.217839347979858" opacity="0.6756039395860411" transform="matrix(0.8786334673252032,-0.47749683778648316,0.47749683778648316,0.8786334673252032,77.33162995791326,124.6585628742094)" fill="#e2d810"></use><use xlink:href="#bbburst-shape-1" width="24.670958501712057" opacity="0.11030215931403986" transform="matrix(0.9961711002848314,-0.08742504765402512,0.08742504765402512,0.9961711002848314,203.53240488794916,374.1616657756037)" fill="grey"></use><use xlink:href="#bbburst-shape-4" width="15.059942088093608" opacity="0.5943020477425975" transform="matrix(0.9796567460525194,-0.20068049211069194,0.20068049211069194,0.9796567460525194,333.840612259173,-171.6334090375941)" fill="grey"></use><use xlink:href="#bbburst-shape-4" width="29.97225583482776" opacity="0.013685596515385368" transform="matrix(0.9330312252691702,0.3597954039071527,-0.3597954039071527,0.9330312252691702,792.9739377203995,378.91349012717353)" fill="grey"></use><use xlink:href="#bbburst-shape-10" width="11.410945182783633" opacity="0.685559706083874" transform="matrix(0.8600075432151939,-0.5102813200705728,0.5102813200705728,0.8600075432151939,332.35102389496564,64.9220941821738)" fill="none" stroke="#e2d810"></use><use xlink:href="#bbburst-shape-10" width="11.667621010032054" opacity="0.6629747372424926" transform="matrix(0.9950206496270835,0.09966898622789686,-0.09966898622789686,0.9950206496270835,503.34955043718776,-133.4990219679873)" fill="none" stroke="grey"></use><use xlink:href="#bbburst-shape-8" width="6.874778187546093" opacity="0.837966363729063" transform="matrix(0.752950305034539,0.658077380061338,-0.658077380061338,0.752950305034539,600.1198001170776,137.22213583023728)" fill="none" stroke="#e2d810"></use><use xlink:href="#bbburst-shape-8" width="25.114498519016664" opacity="0.20712674640549833" transform="matrix(0.8495533057148319,0.5275027779538239,-0.5275027779538239,0.8495533057148319,777.9196448965026,363.0126448152783)" fill="none" stroke="#e2d810"></use><use xlink:href="#bbburst-shape-4" width="23.276189216107056" opacity="0.5170887906785785" transform="matrix(0.9234604397993257,0.38369364879501977,-0.38369364879501977,0.9234604397993257,353.20802542128445,-80.16974509617086)" fill="#e2d810"></use><use xlink:href="#bbburst-shape-10" width="16.160999029211048" opacity="0.6450744467814713" transform="matrix(0.7500427601229007,0.6613893391847353,-0.6613893391847353,0.7500427601229007,814.7327958936623,61.48562242640975)" fill="none" stroke="grey"></use><use xlink:href="#bbburst-shape-8" width="5.403330552104208" opacity="0.9054110532696527" transform="matrix(0.9965033503293105,-0.08355281432997631,0.08355281432997631,0.9965033503293105,333.56539832313274,-28.24871946347156)" fill="none" stroke="grey"></use><use xlink:href="#bbburst-shape-10" width="39.25100224359307" opacity="0.0714573678503867" transform="matrix(0.7782929079676554,0.6279013850974138,-0.6279013850974138,0.7782929079676554,919.3462489914873,-230.63213313700368)" fill="none" stroke="grey"></use><use xlink:href="#bbburst-shape-4" width="24.20765674008495" opacity="0.45132208437719823" transform="matrix(0.8483196736345334,-0.5294844013987557,0.5294844013987557,0.8483196736345334,-66.6884911399832,33.72058143991916)" fill="#e2d810"></use><use xlink:href="#bbburst-shape-4" width="16.601931415308066" opacity="0.5376224296904923" transform="matrix(0.7754907495255776,-0.6313589291363969,0.6313589291363969,0.7754907495255776,-67.01846902452499,98.13844472820222)" fill="#b666d2"></use><use xlink:href="#bbburst-shape-4" width="8.773483014183014" opacity="0.8603535698245275" transform="matrix(0.9164570238834376,0.40013313206320755,-0.40013313206320755,0.9164570238834376,584.2753709185753,-24.466036716208066)" fill="grey"></use><use xlink:href="#bbburst-shape-4" width="5.445882517483997" opacity="0.8996562787029424" transform="matrix(0.7324260711195851,-0.680846568871672,0.680846568871672,0.7324260711195851,160.32110575195014,137.84002733459255)" fill="grey"></use><use xlink:href="#bbburst-shape-10" width="10.445111414794546" opacity="0.8081279333974519" transform="matrix(0.8950965705811549,0.4458723240276926,-0.4458723240276926,0.8950965705811549,659.8907238407678,34.9708419437394)" fill="none" stroke="#e2d810"></use><use xlink:href="#bbburst-shape-10" width="7.760507621455231" opacity="0.8785872680903789" transform="matrix(0.911065899782163,-0.41226075031964626,0.41226075031964626,0.911065899782163,235.94113832998687,-17.28651426820113)" fill="none" stroke="#e2d810"></use><use xlink:href="#bbburst-shape-4" width="11.281986012794432" opacity="0.6852862063620427" transform="matrix(0.9996743306635969,0.02551925963443134,-0.02551925963443134,0.9996743306635969,294.95101398989675,-89.67298407936931)" fill="grey"></use><use xlink:href="#bbburst-shape-4" width="13.380337135819719" opacity="0.654043948184259" transform="matrix(0.9585538701109241,-0.28491135129259,0.28491135129259,0.9585538701109241,420.15564370253713,-48.494547137756626)" fill="#e2d810"></use><use xlink:href="#bbburst-shape-4" width="7.198293397937724" opacity="0.87945080811977" transform="matrix(0.9998055885579462,-0.01971763394271323,0.01971763394271323,0.9998055885579462,346.29836105985464,34.221950865052634)" fill="#e2d810"></use><use xlink:href="#bbburst-shape-4" width="6.78472355754449" opacity="0.8966315257274537" transform="matrix(0.8194791204089318,-0.5731090395498953,0.5731090395498953,0.8194791204089318,156.7542101173142,119.29852470908094)" fill="#b666d2"></use><use xlink:href="#bbburst-shape-4" width="25.917709847940394" opacity="0.21192139224822826" transform="matrix(0.9917448428354793,-0.128227012400783,0.128227012400783,0.9917448428354793,31.417355518262468,-176.89404147537294)" fill="grey"></use><use xlink:href="#bbburst-shape-1" width="42.20948931075705" opacity="-0.11034504063292983" transform="matrix(0.9656335096373153,-0.2599075317598951,0.2599075317598951,0.9656335096373153,626.3542589059299,-336.63288223526587)" fill="grey"></use><use xlink:href="#bbburst-shape-4" width="4.844373826055028" opacity="0.9429186654989871" transform="matrix(0.8118795077372173,-0.5838250293678523,0.5838250293678523,0.8118795077372173,160.1021277136655,51.35963460004882)" fill="#b666d2"></use><use xlink:href="#bbburst-shape-10" width="11.799521984321592" opacity="0.7502086555508067" transform="matrix(0.7898650398958731,-0.6132807014331128,0.6132807014331128,0.7898650398958731,131.40401947473484,-23.180375108744215)" fill="none" stroke="#e2d810"></use><use xlink:href="#bbburst-shape-1" width="15.666919540675854" opacity="0.558696688431655" transform="matrix(0.8921543043291764,-0.4517307796319875,0.4517307796319875,0.8921543043291764,18.93087019050145,91.79569473139833)" fill="#b666d2"></use><use xlink:href="#bbburst-shape-4" width="6.348414037244824" opacity="0.9279374123753426" transform="matrix(0.9832382030478742,-0.18232563195334653,0.18232563195334653,0.9832382030478742,356.3268723524437,5.469723239322434)" fill="#b666d2"></use><use xlink:href="#bbburst-shape-4" width="22.74593801428306" opacity="0.17467723601821405" transform="matrix(0.9735086264566977,0.2286502880260462,-0.2286502880260462,0.9735086264566977,445.24281164008744,377.745227648857)" fill="#b666d2"></use><use xlink:href="#bbburst-shape-1" width="23.835487437611885" opacity="0.4607966099544325" transform="matrix(0.9363951259551129,-0.3509475289662379,0.3509475289662379,0.9363951259551129,22.56273560528632,118.1963934139855)" fill="#e2d810"></use><use xlink:href="#bbburst-shape-8" width="31.512705438797873" opacity="0.2487917815509525" transform="matrix(0.9768428241417718,-0.21395816629128114,0.21395816629128114,0.9768428241417718,494.47426622457266,-263.1796829393047)" fill="none" stroke="#b666d2"></use><use xlink:href="#bbburst-shape-10" width="12.976892483644598" opacity="0.7184460210737522" transform="matrix(0.9054554641323642,-0.42444128271510645,0.42444128271510645,0.9054554641323642,108.71355003625243,-11.209222285609144)" fill="none" stroke="grey"></use><use xlink:href="#bbburst-shape-4" width="24.713841798503132" opacity="0.3143899434191044" transform="matrix(0.9357613849343509,-0.35263384758945865,0.35263384758945865,0.9357613849343509,79.89289993276256,289.1717662881993)" fill="#e2d810"></use><use xlink:href="#bbburst-shape-10" width="26.68390111513284" opacity="0.3602648144853601" transform="matrix(0.9871189561047901,0.15998801985958078,-0.15998801985958078,0.9871189561047901,543.7474786221167,-269.4538006634763)" fill="none" stroke="#b666d2"></use><use xlink:href="#bbburst-shape-8" width="10.305873378077386" opacity="0.7447649220747778" transform="matrix(0.9358880561411903,-0.3522975253564297,0.3522975253564297,0.9358880561411903,153.37477769073323,82.36319987951794)" fill="none" stroke="#b666d2"></use><use xlink:href="#bbburst-shape-4" width="29.976948084910074" opacity="0.29735915057273743" transform="matrix(0.8604682220235831,-0.509504110766119,0.509504110766119,0.8604682220235831,482.0428677808484,-40.145769141644905)" fill="grey"></use><use xlink:href="#bbburst-shape-1" width="16.749368434164445" opacity="0.602134179003601" transform="matrix(0.9414435391911719,0.33717067267957995,-0.33717067267957995,0.9414435391911719,349.338291649382,-1.7366965663457563)" fill="#e2d810"></use><use xlink:href="#bbburst-shape-4" width="37.09968693913062" opacity="-0.10206751641649126" transform="matrix(0.9890664927811823,-0.14747024397325553,0.14747024397325553,0.9890664927811823,678.501092554858,352.5854917627236)" fill="#b666d2"></use><use xlink:href="#bbburst-shape-10" width="8.391607368376095" opacity="0.792741157587106" transform="matrix(0.8537070517266776,-0.5207535595962295,0.5207535595962295,0.8537070517266776,111.05024494170499,113.23229341510353)" fill="none" stroke="grey"></use><use xlink:href="#bbburst-shape-10" width="9.136777012740392" opacity="0.832722251789373" transform="matrix(0.7868024473820487,-0.6172049163718791,0.6172049163718791,0.7868024473820487,203.86649356703342,36.010507299632366)" fill="none" stroke="grey"></use><use xlink:href="#bbburst-shape-4" width="7.602248847642407" opacity="0.7970928449010548" transform="matrix(0.7538764377633872,-0.6570162224672887,0.6570162224672887,0.7538764377633872,159.68475820044864,188.6700567686159)" fill="grey"></use><use xlink:href="#bbburst-shape-8" width="12.676018419587802" opacity="0.7336148368381255" transform="matrix(0.8363614866046556,0.5481783138035018,-0.5481783138035018,0.8363614866046556,732.7930965488426,46.14450128723064)" fill="none" stroke="grey"></use><use xlink:href="#bbburst-shape-8" width="29.790454905409426" opacity="0.2866321861739415" transform="matrix(0.9172380267838776,0.39833955643598673,-0.39833955643598673,0.9172380267838776,579.4596596879757,346.40401115717)" fill="none" stroke="#b666d2"></use><use xlink:href="#bbburst-shape-10" width="31.57308118920374" opacity="0.13410094333785272" transform="matrix(0.9610543637824506,-0.276359385320472,0.276359385320472,0.9610543637824506,553.4309359735493,291.80120586328854)" fill="none" stroke="#e2d810"></use><use xlink:href="#bbburst-shape-10" width="5.763193581201849" opacity="0.8969952371105928" transform="matrix(0.7236135630335513,0.6902053400212785,-0.6902053400212785,0.7236135630335513,627.8637912388508,113.06574315882563)" fill="none" stroke="#e2d810"></use><use xlink:href="#bbburst-shape-10" width="8.989091564582262" opacity="0.8656254903630201" transform="matrix(0.9471604741317441,0.3207600914118365,-0.3207600914118365,0.9471604741317441,578.3230309505004,46.35034802672811)" fill="none" stroke="#e2d810"></use><use xlink:href="#bbburst-shape-10" width="5.357451342539734" opacity="0.9236120383715669" transform="matrix(0.7259619280009935,-0.6877348901234256,0.6877348901234256,0.7259619280009935,121.26112668552923,145.7899883444668)" fill="none" stroke="grey"></use><use xlink:href="#bbburst-shape-10" width="6.0342278469892765" opacity="0.9041442083655516" transform="matrix(0.7106416914793834,-0.7035541104501635,0.7035541104501635,0.7106416914793834,77.27850519476414,135.9619827694106)" fill="none" stroke="grey"></use><use xlink:href="#bbburst-shape-10" width="6.634077223543231" opacity="0.8090619404535397" transform="matrix(0.8985109230777926,0.43895116027855885,-0.43895116027855885,0.8985109230777926,576.7208287825937,124.9628677550985)" fill="none" stroke="grey"></use><use xlink:href="#bbburst-shape-10" width="18.35209279930087" opacity="0.6497075415345397" transform="matrix(0.8885192619712405,0.4588393194856801,-0.4588393194856801,0.8885192619712405,666.1412496683463,169.2640654817195)" fill="none" stroke="#b666d2"></use><use xlink:href="#bbburst-shape-8" width="4.137081060915499" opacity="0.9503289666359935" transform="matrix(0.7405128756684776,-0.672042172016907,0.672042172016907,0.7405128756684776,134.17744518244984,127.07391566526638)" fill="none" stroke="grey"></use><use xlink:href="#bbburst-shape-1" width="26.8904886221733" opacity="0.17291900120639625" transform="matrix(0.7406529712447626,0.6718877705289068,-0.6718877705289068,0.7406529712447626,656.0947987423106,-277.44603131550934)" fill="grey"></use><use xlink:href="#bbburst-shape-4" width="16.896573932397388" opacity="0.5216665935902056" transform="matrix(0.969503566641927,0.24507720062988836,-0.24507720062988836,0.969503566641927,283.9984089683057,-52.811649210164944)" fill="#e2d810"></use><use xlink:href="#bbburst-shape-4" width="32.95293725276817" opacity="0.3764730041159966" transform="matrix(0.9482803364473859,0.3174340931709016,-0.3174340931709016,0.9482803364473859,790.616781107091,-11.597487835888103)" fill="#e2d810"></use><use xlink:href="#bbburst-shape-1" width="6.612224670951248" opacity="0.8647741188546212" transform="matrix(0.8215962940520048,-0.5700697585383842,0.5700697585383842,0.8215962940520048,196.63062004929503,127.60214062329482)" fill="#b666d2"></use><use xlink:href="#bbburst-shape-8" width="29.59817926154473" opacity="0.16757947093329562" transform="matrix(0.9892699091290726,-0.14609944179139223,0.14609944179139223,0.9892699091290726,404.3257923375048,372.9585122271258)" fill="none" stroke="grey"></use><use xlink:href="#bbburst-shape-10" width="17.35833903032677" opacity="0.62370080766871" transform="matrix(0.9783140495555833,0.20712706351936644,-0.20712706351936644,0.9783140495555833,392.72611301613017,155.2348590974974)" fill="none" stroke="grey"></use><use xlink:href="#bbburst-shape-1" width="8.159208423077999" opacity="0.7729463200239033" transform="matrix(0.9952318904800296,0.09753709126043518,-0.09753709126043518,0.9952318904800296,504.6755085521176,-73.16903852415294)" fill="#b666d2"></use><use xlink:href="#bbburst-shape-10" width="12.25427742206545" opacity="0.7753123735715944" transform="matrix(0.9633107709519733,0.26838844715806015,-0.26838844715806015,0.9633107709519733,402.7898205886213,-9.075062340962063)" fill="none" stroke="grey"></use><use xlink:href="#bbburst-shape-8" width="9.970334300962918" opacity="0.7343781348849213" transform="matrix(0.999673590154965,0.02554825134295942,-0.02554825134295942,0.999673590154965,378.4743547848759,116.49873603268497)" fill="none" stroke="grey"></use><use xlink:href="#bbburst-shape-4" width="32.520621871050885" opacity="0.25946680405320577" transform="matrix(0.7863939085211676,0.6177253602053274,-0.6177253602053274,0.7863939085211676,686.350210845386,-253.72625698131162)" fill="#e2d810"></use><use xlink:href="#bbburst-shape-4" width="16.082348746386266" opacity="0.652090197690704" transform="matrix(0.9730378210667802,-0.2306456129511522,0.2306456129511522,0.9730378210667802,143.9079790379467,25.725188635182917)" fill="#b666d2"></use><use xlink:href="#bbburst-shape-8" width="33.50094466073095" opacity="-0.10698908943913965" transform="matrix(0.9662799451383933,0.25749382055370484,-0.25749382055370484,0.9662799451383933,127.73883496807733,354.45022705628276)" fill="none" stroke="grey"></use><use xlink:href="#bbburst-shape-4" width="13.548429246694297" opacity="0.6790267422027672" transform="matrix(0.9810251932657335,0.1938802985811872,-0.1938802985811872,0.9810251932657335,384.8988430943309,122.32923804795087)" fill="grey"></use><use xlink:href="#bbburst-shape-10" width="25.67536904162351" opacity="0.5224221177196601" transform="matrix(0.740817095425271,0.6717068044360314,-0.6717068044360314,0.740817095425271,804.0037017617848,-63.72722129604168)" fill="none" stroke="grey"></use><use xlink:href="#bbburst-shape-10" width="27.32333216008992" opacity="0.12362177473781344" transform="matrix(0.8048605829475025,-0.5934639348919245,0.5934639348919245,0.8048605829475025,522.8700506594629,-46.87898115840102)" fill="none" stroke="#e2d810"></use><use xlink:href="#bbburst-shape-8" width="35.685980025893116" opacity="0.21844514371255064" transform="matrix(0.9797294895554052,0.20032505408836235,-0.20032505408836235,0.9797294895554052,726.0314843044684,-228.53739050503287)" fill="none" stroke="#e2d810"></use><use xlink:href="#bbburst-shape-10" width="10.30511959749626" opacity="0.8149123566661207" transform="matrix(0.846810747820852,-0.5318943103428437,0.5318943103428437,0.846810747820852,256.0669981882405,103.77374784836331)" fill="none" stroke="grey"></use><use xlink:href="#bbburst-shape-8" width="19.567892485366883" opacity="0.4409500636745781" transform="matrix(0.9172304468316268,-0.3983570099860855,0.3983570099860855,0.9172304468316268,361.2235031386055,252.66241921923256)" fill="none" stroke="#b666d2"></use><use xlink:href="#bbburst-shape-10" width="8.091933595702894" opacity="0.780375889942408" transform="matrix(0.8036260833812496,-0.5951345378225942,0.5951345378225942,0.8036260833812496,98.90108201857038,2.266577200699487)" fill="none" stroke="#e2d810"></use><use xlink:href="#bbburst-shape-1" width="13.66262553667218" opacity="0.6737538167558557" transform="matrix(0.9878572482778208,-0.15536427203502048,0.15536427203502048,0.9878572482778208,289.33496700269035,146.6780212392904)" fill="grey"></use><use xlink:href="#bbburst-shape-10" width="6.019700431701268" opacity="0.9546511924263618" transform="matrix(0.9592639825987843,0.28251125940167277,-0.28251125940167277,0.9592639825987843,518.9323638662795,-2.960750047010947)" fill="none" stroke="grey"></use><use xlink:href="#bbburst-shape-4" width="18.00300908997756" opacity="0.5129428604980895" transform="matrix(0.9546531491140442,-0.29772027960257996,0.29772027960257996,0.9546531491140442,206.35873514899168,-188.17924671464843)" fill="#e2d810"></use><use xlink:href="#bbburst-shape-10" width="10.593376090291635" opacity="0.7571739496227842" transform="matrix(0.8426059058732024,-0.538530674509447,0.538530674509447,0.8426059058732024,277.73618791348144,114.92531236305706)" fill="none" stroke="grey"></use><use xlink:href="#bbburst-shape-1" width="5.874582728145731" opacity="0.8658370094575123" transform="matrix(0.9930968172520598,-0.11729753434675802,0.11729753434675802,0.9930968172520598,410.2578674455304,8.924677889467887)" fill="#e2d810"></use><use xlink:href="#bbburst-shape-10" width="6.9498477905752525" opacity="0.7771609744245609" transform="matrix(0.9839405869302178,0.17849627836853743,-0.17849627836853743,0.9839405869302178,533.802775432561,81.45316656975757)" fill="none" stroke="#b666d2"></use><use xlink:href="#bbburst-shape-10" width="20.347870484516548" opacity="0.2136555753464633" transform="matrix(0.9042234235568676,0.42705971513489493,-0.42705971513489493,0.9042234235568676,417.13233661537413,-289.04417460889067)" fill="none" stroke="grey"></use><use xlink:href="#bbburst-shape-4" width="23.01087342955197" opacity="0.16647942047053388" transform="matrix(0.8292325202477685,0.5589037729015024,-0.5589037729015024,0.8292325202477685,988.6558139946575,80.00605392007037)" fill="#e2d810"></use><use xlink:href="#bbburst-shape-10" width="25.991729676809708" opacity="0.31774953349550594" transform="matrix(0.9913238517268114,0.13144208229299642,-0.13144208229299642,0.9913238517268114,149.01620041830088,100.57204165204712)" fill="none" stroke="#e2d810"></use><use xlink:href="#bbburst-shape-10" width="22.355016535644562" opacity="0.4345048418061316" transform="matrix(0.7156498494461915,-0.6984592278634763,0.6984592278634763,0.7156498494461915,-45.71821310503924,320.76138257924134)" fill="none" stroke="#e2d810"></use><use xlink:href="#bbburst-shape-4" width="9.314274673686686" opacity="0.7824951892631624" transform="matrix(0.784402104778462,-0.6202526404773453,0.6202526404773453,0.784402104778462,138.59387542108803,186.53398378104646)" fill="grey"></use><use xlink:href="#bbburst-shape-1" width="27.017614312214306" opacity="0.32610053429072894" transform="matrix(0.7716436468841864,0.6360550937012242,-0.6360550937012242,0.7716436468841864,754.4820060336297,365.18077354548524)" fill="grey"></use><use xlink:href="#bbburst-shape-1" width="13.939818589137609" opacity="0.6980609121123074" transform="matrix(0.7161945639080056,0.6979006710332221,-0.6979006710332221,0.7161945639080056,626.4865771392454,-18.56523583645634)" fill="#e2d810"></use><use xlink:href="#bbburst-shape-8" width="21.938166574623512" opacity="0.43734969289178205" transform="matrix(0.9693648818799223,-0.24562517333922493,0.24562517333922493,0.9693648818799223,466.0504886302091,197.99133843321908)" fill="none" stroke="#b666d2"></use><use xlink:href="#bbburst-shape-10" width="10.84960458585482" opacity="0.8343863888673126" transform="matrix(0.8836806259509835,0.46809032388939414,-0.46809032388939414,0.8836806259509835,511.42021578235267,21.405245269597458)" fill="none" stroke="grey"></use><use xlink:href="#bbburst-shape-8" width="9.384448187962294" opacity="0.7851357106647301" transform="matrix(0.9887305219890227,0.14970622861896823,-0.14970622861896823,0.9887305219890227,501.4517034780891,88.73777012290839)" fill="none" stroke="grey"></use><use xlink:href="#bbburst-shape-10" width="5.170023038211289" opacity="0.8973849175487097" transform="matrix(0.9998035203837989,-0.019822225610728477,0.019822225610728477,0.9998035203837989,410.82209254762154,41.082155455930206)" fill="none" stroke="#e2d810"></use><use xlink:href="#bbburst-shape-10" width="11.615771920424756" opacity="0.716442855577081" transform="matrix(0.9957798662301413,0.09177395061062754,-0.09177395061062754,0.9957798662301413,307.6259641430299,34.00312321057163)" fill="none" stroke="#e2d810"></use><use xlink:href="#bbburst-shape-4" width="5.418605008373535" opacity="0.8273163774126788" transform="matrix(0.8633696224345423,-0.5045719919468736,0.5045719919468736,0.8633696224345423,255.08682960057524,106.29912288786574)" fill="grey"></use><use xlink:href="#bbburst-shape-10" width="21.1344890840179" opacity="0.17168199483184154" transform="matrix(0.9623160669173025,-0.27193342448624036,0.27193342448624036,0.9623160669173025,-88.16681560568276,69.04269930764883)" fill="none" stroke="grey"></use><use xlink:href="#bbburst-shape-10" width="18.07077205942177" opacity="0.5940885745541207" transform="matrix(0.7429788217233366,-0.66931492622726,0.66931492622726,0.7429788217233366,185.32818101591016,-63.749335002667976)" fill="none" stroke="grey"></use><use xlink:href="#bbburst-shape-1" width="13.958756898508948" opacity="0.7199629644043624" transform="matrix(0.7136957163295813,0.7004558690544365,-0.7004558690544365,0.7136957163295813,619.1211027035372,222.5024906837367)" fill="grey"></use><use xlink:href="#bbburst-shape-10" width="15.574965453022687" opacity="0.6771543782413627" transform="matrix(0.93612890113396,0.35165704949812204,-0.35165704949812204,0.93612890113396,560.7177170106331,-119.87394739371905)" fill="none" stroke="grey"></use><use xlink:href="#bbburst-shape-10" width="18.51244065912909" opacity="0.5998835893873028" transform="matrix(0.94307588299937,0.3325776283891606,-0.3325776283891606,0.94307588299937,704.3309366949092,16.80092206181274)" fill="none" stroke="#e2d810"></use><use xlink:href="#bbburst-shape-10" width="28.260821225580752" opacity="0.03794876672292291" transform="matrix(0.7961911302575664,-0.6050451917825469,0.6050451917825469,0.7961911302575664,-220.04922111346463,320.06075105935474)" fill="none" stroke="grey"></use><use xlink:href="#bbburst-shape-10" width="29.061814843527337" opacity="0.03521260796380077" transform="matrix(0.7875408297547911,0.6162624777391003,-0.6162624777391003,0.7875408297547911,999.008949355559,312.7398217719735)" fill="none" stroke="#b666d2"></use><use xlink:href="#bbburst-shape-10" width="13.659749913216679" opacity="0.6386684248996409" transform="matrix(0.8976740227370037,-0.4406601285607372,0.4406601285607372,0.8976740227370037,64.41422596792268,98.44782056633392)" fill="none" stroke="grey"></use><use xlink:href="#bbburst-shape-10" width="6.196240724032711" opacity="0.8723211328787271" transform="matrix(0.9218981018615772,-0.38743243254020576,0.38743243254020576,0.9218981018615772,224.71658632186808,-22.299052102689927)" fill="none" stroke="#e2d810"></use><use xlink:href="#bbburst-shape-8" width="33.25186423200506" opacity="0.3830240453821163" transform="matrix(0.8582914742250565,0.5131624940236564,-0.5131624940236564,0.8582914742250565,781.7442228648484,-153.58655358080574)" fill="none" stroke="grey"></use><use xlink:href="#bbburst-shape-10" width="6.765185688479103" opacity="0.8598843598159074" transform="matrix(0.99378565460498,0.11131070344468802,-0.11131070344468802,0.99378565460498,417.443076846723,60.52958078796263)" fill="none" stroke="#e2d810"></use><use xlink:href="#bbburst-shape-1" width="8.932881045345491" opacity="0.7610502536769684" transform="matrix(0.8019622038386454,-0.5973747765132564,0.5973747765132564,0.8019622038386454,112.41031841019662,-15.735939401491692)" fill="#e2d810"></use><use xlink:href="#bbburst-shape-10" width="11.747130874012877" opacity="0.6715746510560372" transform="matrix(0.7078839308003682,0.7063287765018637,-0.7063287765018637,0.7078839308003682,671.0276523196252,260.306493819349)" fill="none" stroke="#b666d2"></use><use xlink:href="#bbburst-shape-10" width="6.8116722019376486" opacity="0.87089693739666" transform="matrix(0.7757267567343429,-0.6310689335456291,0.6310689335456291,0.7757267567343429,109.60828021618988,45.733404532122336)" fill="none" stroke="grey"></use><use xlink:href="#bbburst-shape-4" width="13.739147964044193" opacity="0.6822848671694636" transform="matrix(0.8983111480028927,-0.43935985407604666,0.43935985407604666,0.8983111480028927,208.04532816864028,-98.91351821012262)" fill="#b666d2"></use><use xlink:href="#bbburst-shape-10" width="5.721578721752345" opacity="0.8678605262758439" transform="matrix(0.9928231170673232,0.11959204913673925,-0.11959204913673925,0.9928231170673232,485.80347778914324,45.779241339031216)" fill="none" stroke="#b666d2"></use><use xlink:href="#bbburst-shape-1" width="41.4565195943526" opacity="0.09972358284941951" transform="matrix(0.9767622645786566,-0.21432563657942208,0.21432563657942208,0.9767622645786566,-3.010230881557291,289.2714930664305)" fill="#b666d2"></use><use xlink:href="#bbburst-shape-10" width="23.920025417186217" opacity="0.43449147007610445" transform="matrix(0.7536526147827806,-0.6572729541302288,0.6572729541302288,0.7536526147827806,-124.30870319424724,138.97091945606684)" fill="none" stroke="grey"></use><use xlink:href="#bbburst-shape-8" width="26.218691172668567" opacity="0.2617703785229495" transform="matrix(0.9932494821185038,-0.11599769942254885,0.11599769942254885,0.9932494821185038,23.260363007411172,-94.10135724850068)" fill="none" stroke="grey"></use><use xlink:href="#bbburst-shape-4" width="26.853906905605953" opacity="0.41385060518142114" transform="matrix(0.9070699612098568,-0.42097991100615345,0.42097991100615345,0.9070699612098568,477.8336011550656,95.81286262247124)" fill="#e2d810"></use><use xlink:href="#bbburst-shape-1" width="10.78417878471403" opacity="0.673994173215892" transform="matrix(0.8076341403925126,-0.5896838943641308,0.5896838943641308,0.8076341403925126,51.9420896419536,179.59919999068552)" fill="#e2d810"></use><use xlink:href="#bbburst-shape-10" width="6.37646733738429" opacity="0.8913772154264484" transform="matrix(0.9760218053794604,0.21767277143413877,-0.21767277143413877,0.9760218053794604,458.84451851442174,50.83326397239972)" fill="none" stroke="#b666d2"></use><use xlink:href="#bbburst-shape-10" width="22.695188937939548" opacity="0.13357753557421648" transform="matrix(0.9828830652719388,0.18423050779292163,-0.18423050779292163,0.9828830652719388,572.1237055198834,-369.4168272355436)" fill="none" stroke="grey"></use><use xlink:href="#bbburst-shape-4" width="20.696828043926438" opacity="0.13511118588108717" transform="matrix(0.9692011189717339,0.2462705645909372,-0.2462705645909372,0.9692011189717339,858.6484104255625,129.98673780684618)" fill="grey"></use><use xlink:href="#bbburst-shape-10" width="17.117946199143912" opacity="0.6122226395160657" transform="matrix(0.9964491413702117,0.08419684473047659,-0.08419684473047659,0.9964491413702117,308.80674568486194,-129.35562753598174)" fill="none" stroke="grey"></use><use xlink:href="#bbburst-shape-4" width="15.786206987691717" opacity="0.6462245809738673" transform="matrix(0.737323134915138,0.6755402243530086,-0.6755402243530086,0.737323134915138,818.3473793028613,140.2509057218868)" fill="grey"></use><use xlink:href="#bbburst-shape-4" width="29.68457956699178" opacity="-0.0038989358599190727" transform="matrix(0.7674631891332405,-0.6410930145660892,0.6410930145660892,0.7674631891332405,-134.38079699426223,467.27340325487256)" fill="#b666d2"></use><use xlink:href="#bbburst-shape-4" width="10.732833900315002" opacity="0.7279738521938437" transform="matrix(0.9912243454320143,-0.1321903817335994,0.1321903817335994,0.9912243454320143,383.39314032830725,-110.90163140172064)" fill="grey"></use><use xlink:href="#bbburst-shape-4" width="5.725797948503938" opacity="0.9645373740367031" transform="matrix(0.9485888895913696,0.31651085059411854,-0.31651085059411854,0.9485888895913696,539.6533161417453,17.196232624880054)" fill="#e2d810"></use><use xlink:href="#bbburst-shape-4" width="33.135508810437216" opacity="0.20329163489836255" transform="matrix(0.7630334150018553,-0.6463590392271207,0.6463590392271207,0.7630334150018553,438.66948786292033,285.90041990242673)" fill="#e2d810"></use><use xlink:href="#bbburst-shape-8" width="6.629752845501384" opacity="0.9135910979316633" transform="matrix(0.8303533923953977,0.5572371521510878,-0.5572371521510878,0.8303533923953977,593.4521651093172,94.28867634003757)" fill="none" stroke="grey"></use><use xlink:href="#bbburst-shape-10" width="19.464415345456654" opacity="0.5533428710275445" transform="matrix(0.9565046138042649,-0.29171719827797976,0.29171719827797976,0.9565046138042649,399.7929169872479,177.00607947145113)" fill="none" stroke="grey"></use><use xlink:href="#bbburst-shape-10" width="6.212028083092726" opacity="0.9387299494027112" transform="matrix(0.8761032091210919,0.4821236013386239,-0.4821236013386239,0.8761032091210919,567.4166072448737,63.6935750986363)" fill="none" stroke="grey"></use><use xlink:href="#bbburst-shape-4" width="18.308958820525877" opacity="0.4704674088361951" transform="matrix(0.9057854143978747,-0.42373669072204534,0.42373669072204534,0.9057854143978747,36.87537387176627,191.34385380041067)" fill="#e2d810"></use><use xlink:href="#bbburst-shape-10" width="7.2912157176486625" opacity="0.8700921661110952" transform="matrix(0.7944434887996453,-0.6073380797412984,0.6073380797412984,0.7944434887996453,205.5447085622545,56.54607585526742)" fill="none" stroke="grey"></use><use xlink:href="#bbburst-shape-1" width="7.855671698326513" opacity="0.8820058647912677" transform="matrix(0.715675371354562,-0.69843307684882,0.69843307684882,0.715675371354562,153.97106516379165,77.58786119641724)" fill="grey"></use><use xlink:href="#bbburst-shape-4" width="11.033396496583242" opacity="0.7243871410396752" transform="matrix(0.8940558219317816,0.44795556394567354,-0.44795556394567354,0.8940558219317816,689.8299407789916,-5.058285787572174)" fill="grey"></use><use xlink:href="#bbburst-shape-8" width="14.85798834730856" opacity="0.557816028015548" transform="matrix(0.9306949232248881,0.3657963366183696,-0.3657963366183696,0.9306949232248881,734.0419011814151,66.3614354901186)" fill="none" stroke="grey"></use><use xlink:href="#bbburst-shape-10" width="8.505143001951458" opacity="0.7815598318504118" transform="matrix(0.9994262604246906,-0.03386960250015384,0.03386960250015384,0.9994262604246906,350.33430921043123,93.36256106445336)" fill="none" stroke="grey"></use><use xlink:href="#bbburst-shape-1" width="6.804468716008951" opacity="0.9230347143459666" transform="matrix(0.9600268100250245,-0.27990806353725406,0.27990806353725406,0.9600268100250245,305.16420235283215,-11.045322957786766)" fill="#e2d810"></use><use xlink:href="#bbburst-shape-4" width="8.464113053172857" opacity="0.8557126146794483" transform="matrix(0.9485774179875771,0.3165452291285108,-0.3165452291285108,0.9485774179875771,457.7635086831965,22.684747133170845)" fill="#b666d2"></use><use xlink:href="#bbburst-shape-10" width="11.267226807543162" opacity="0.7341904209846685" transform="matrix(0.9247970154538837,-0.38046087868214407,0.38046087868214407,0.9247970154538837,240.2026000109336,151.8147264273831)" fill="none" stroke="#b666d2"></use><use xlink:href="#bbburst-shape-10" width="7.29154423179533" opacity="0.812713129092189" transform="matrix(0.7503936471837536,0.6609912058917762,-0.6609912058917762,0.7503936471837536,705.3818157501113,25.381132827192232)" fill="none" stroke="#e2d810"></use><use xlink:href="#bbburst-shape-10" width="37.67383372497808" opacity="0.02107743810162166" transform="matrix(0.987707482386499,0.1563135606328633,-0.1563135606328633,0.987707482386499,805.8228657852555,-249.18472033341095)" fill="none" stroke="grey"></use><use xlink:href="#bbburst-shape-4" width="19.694087405040083" opacity="0.42413037790115315" transform="matrix(0.9955147572556478,-0.09460638501828923,0.09460638501828923,0.9955147572556478,482.4394739627247,-221.3827703051908)" fill="#e2d810"></use><use xlink:href="#bbburst-shape-1" width="17.50297654633889" opacity="0.6096814212538835" transform="matrix(0.8312675372975044,-0.5558725406379975,0.5558725406379975,0.8312675372975044,304.1163133545058,186.2514291107126)" fill="#e2d810"></use><use xlink:href="#bbburst-shape-10" width="14.326784266623642" opacity="0.6984741063697171" transform="matrix(0.9604262826348103,-0.27853429882920966,0.27853429882920966,0.9604262826348103,303.86173618857373,151.69036994964398)" fill="none" stroke="#b666d2"></use><use xlink:href="#bbburst-shape-4" width="21.54862494097375" opacity="0.5090779971395476" transform="matrix(0.7751438702698608,-0.631784757954053,0.631784757954053,0.7751438702698608,343.3724787402816,180.51152258359986)" fill="#e2d810"></use><use xlink:href="#bbburst-shape-10" width="14.170683943199979" opacity="0.7467678888380151" transform="matrix(0.8292338783212371,0.558901757954222,-0.558901757954222,0.8292338783212371,628.4039472098295,-49.10279271631822)" fill="none" stroke="#e2d810"></use><use xlink:href="#bbburst-shape-10" width="13.363205523587087" opacity="0.6240322899682673" transform="matrix(0.7695099196648124,-0.6386348593190432,0.6386348593190432,0.7695099196648124,91.90196557258679,-65.91676656862913)" fill="none" stroke="#b666d2"></use><use xlink:href="#bbburst-shape-8" width="26.13798503313958" opacity="0.3924782557085075" transform="matrix(0.9697014816665879,-0.24429293164892046,0.24429293164892046,0.9697014816665879,65.85034457182816,-141.7578087550182)" fill="none" stroke="grey"></use><use xlink:href="#bbburst-shape-4" width="22.60711003245815" opacity="0.2536044572524353" transform="matrix(0.8397331577351944,-0.5429992852666374,0.5429992852666374,0.8397331577351944,58.2863891751235,385.8270561063116)" fill="#e2d810"></use><use xlink:href="#bbburst-shape-10" width="27.45673375260807" opacity="0.1208534246248314" transform="matrix(0.9792695368762263,-0.20256153175324582,0.20256153175324582,0.9792695368762263,-65.32712100422033,-126.67955371170785)" fill="none" stroke="#b666d2"></use><use xlink:href="#bbburst-shape-10" width="5.5722207024731505" opacity="0.8370744040263088" transform="matrix(0.9671736448346158,-0.25411639210669673,0.25411639210669673,0.9671736448346158,310.2645249114655,85.68548934870762)" fill="none" stroke="grey"></use><use xlink:href="#bbburst-shape-4" width="30.41909243126858" opacity="0.26806434831055825" transform="matrix(0.7340386447310657,-0.6791076998837373,0.6791076998837373,0.7340386447310657,63.52491210160315,-208.2324783023072)" fill="#b666d2"></use><use xlink:href="#bbburst-shape-10" width="16.03790718623038" opacity="0.5946411488253622" transform="matrix(0.8040328715699346,0.594584847969577,-0.594584847969577,0.8040328715699346,620.7265510427455,255.7186464814356)" fill="none" stroke="#e2d810"></use><use xlink:href="#bbburst-shape-4" width="30.672780147669407" opacity="0.2843046660325236" transform="matrix(0.9953116556883513,0.09671973971694074,-0.09671973971694074,0.9953116556883513,728.6327056718552,103.23079819767594)" fill="#b666d2"></use><use xlink:href="#bbburst-shape-4" width="5.796436556822284" opacity="0.930439425162872" transform="matrix(0.9525585338525272,-0.3043554494086213,0.3043554494086213,0.9525585338525272,262.8093451241076,48.47858269404088)" fill="#b666d2"></use><use xlink:href="#bbburst-shape-1" width="36.92693307774445" opacity="-0.10479401381750408" transform="matrix(0.9083952334784692,-0.4181125444107094,0.4181125444107094,0.9083952334784692,-134.1410400543841,-308.5323050586261)" fill="#e2d810"></use><use xlink:href="#bbburst-shape-4" width="22.196327280759366" opacity="0.29617790015918743" transform="matrix(0.7150965179770589,-0.6990257291238183,0.6990257291238183,0.7150965179770589,308.89430716546445,370.18501222327274)" fill="#b666d2"></use><use xlink:href="#bbburst-shape-10" width="8.509419324490889" opacity="0.7598151601022853" transform="matrix(0.9972885958955827,-0.07358978527361788,0.07358978527361788,0.9972885958955827,450.985796340667,68.58271293307536)" fill="none" stroke="#e2d810"></use><use xlink:href="#bbburst-shape-4" width="24.418216438173662" opacity="0.18078951840847135" transform="matrix(0.9787323501190613,-0.2051413825399913,0.2051413825399913,0.9787323501190613,626.9339020129199,-170.34857819808548)" fill="grey"></use><use xlink:href="#bbburst-shape-10" width="7.561734925932838" opacity="0.770684993417849" transform="matrix(0.9504538992375353,0.310865542355799,-0.310865542355799,0.9504538992375353,465.75037669174606,105.95452279874371)" fill="none" stroke="#e2d810"></use><use xlink:href="#bbburst-shape-8" width="20.844547679481003" opacity="0.5608018088025546" transform="matrix(0.8148301281891883,0.5796998035148805,-0.5796998035148805,0.8148301281891883,806.2457641920241,-6.967989103172158)" fill="none" stroke="#e2d810"></use><use xlink:href="#bbburst-shape-10" width="12.988736219218259" opacity="0.7194456426713751" transform="matrix(0.862309466116857,0.5063816590727404,-0.5063816590727404,0.862309466116857,718.2982238473203,86.63221359442548)" fill="none" stroke="grey"></use><use xlink:href="#bbburst-shape-4" width="5.154167138914941" opacity="0.9406784959086303" transform="matrix(0.9999013688301326,-0.014044664881270128,0.014044664881270128,0.9999013688301326,414.85434101558405,-13.386305858400704)" fill="#b666d2"></use><use xlink:href="#bbburst-shape-10" width="21.456280264781388" opacity="0.414836470186002" transform="matrix(0.9961732563259164,0.08740047700682216,-0.08740047700682216,0.9961732563259164,473.44775644010497,259.28430599783314)" fill="none" stroke="grey"></use><use xlink:href="#bbburst-shape-10" width="13.284499457073007" opacity="0.6109778896400373" transform="matrix(0.8140464863466224,-0.5807997228535137,0.5807997228535137,0.8140464863466224,79.42871778369206,-75.97753776875493)" fill="none" stroke="grey"></use><use xlink:href="#bbburst-shape-4" width="20.953101009347797" opacity="0.5565169383679325" transform="matrix(0.8971316908080665,0.44176320506336847,-0.44176320506336847,0.8971316908080665,667.5453943632784,-136.02566124172904)" fill="#b666d2"></use><use xlink:href="#bbburst-shape-4" width="13.440832686770076" opacity="0.6964056091121569" transform="matrix(0.9716973597033903,0.23622921314998294,-0.23622921314998294,0.9716973597033903,586.4469401168973,104.4257625599788)" fill="grey"></use><use xlink:href="#bbburst-shape-1" width="22.846009725540004" opacity="0.4947302190529822" transform="matrix(0.8307554203409535,0.5566376124321153,-0.5566376124321153,0.8307554203409535,688.8630506417308,275.7586071994832)" fill="grey"></use><use xlink:href="#bbburst-shape-1" width="22.69237991390097" opacity="0.31889211701029885" transform="matrix(0.8314707687095334,-0.5555685023303406,0.5555685023303406,0.8314707687095334,407.35081557765034,265.6308844464822)" fill="grey"></use><use xlink:href="#bbburst-shape-4" width="8.48464101513946" opacity="0.8267629703029347" transform="matrix(0.9735782164446297,0.22835379669384456,-0.22835379669384456,0.9735782164446297,533.6239703447575,72.2408265458306)" fill="grey"></use><use xlink:href="#bbburst-shape-4" width="12.222029006122204" opacity="0.7513199981093429" transform="matrix(0.9775735831509358,-0.21059413459410595,0.21059413459410595,0.9775735831509358,224.68845159523275,-62.39909394642149)" fill="grey"></use><use xlink:href="#bbburst-shape-8" width="13.834445131343946" opacity="0.6474004113050256" transform="matrix(0.7840175792078705,-0.6207386209130463,0.6207386209130463,0.7840175792078705,250.08515350569834,-29.316923747719045)" fill="none" stroke="#b666d2"></use><use xlink:href="#bbburst-shape-4" width="33.64520575856643" opacity="0.14294005793159192" transform="matrix(0.9345294516760375,0.3558858018382929,-0.3558858018382929,0.9345294516760375,164.01641706687093,151.62154495880588)" fill="grey"></use><use xlink:href="#bbburst-shape-4" width="12.448560231537064" opacity="0.7512146916903326" transform="matrix(0.7837757181732852,0.6210439787985639,-0.6210439787985639,0.7837757181732852,531.7534642488441,88.88583428006683)" fill="grey"></use><use xlink:href="#bbburst-shape-1" width="18.63212251612194" opacity="0.606895572840515" transform="matrix(0.8068703923669605,0.5907285077948983,-0.5907285077948983,0.8068703923669605,785.8177185254227,153.1653579293402)" fill="grey"></use><use xlink:href="#bbburst-shape-10" width="4.7089945328699905" opacity="0.970117709844139" transform="matrix(0.9469942258681657,0.3212505815906851,-0.3212505815906851,0.9469942258681657,535.0981147919528,30.589720030542537)" fill="none" stroke="#b666d2"></use><use xlink:href="#bbburst-shape-4" width="23.99060900801707" opacity="0.1293664631771977" transform="matrix(0.994048067130691,0.10894237115896298,-0.10894237115896298,0.994048067130691,317.38608359644235,-373.65651280463385)" fill="#b666d2"></use><use xlink:href="#bbburst-shape-4" width="12.26757715862837" opacity="0.7907305848241344" transform="matrix(0.9089895309835,-0.41681894458193325,0.41681894458193325,0.9089895309835,145.19671586364436,-6.4292636053548335)" fill="#b666d2"></use><use xlink:href="#bbburst-shape-10" width="29.500213935965274" opacity="0.09665087994604282" transform="matrix(0.99874147459599,-0.05015443072977075,0.05015443072977075,0.99874147459599,533.7271819850574,371.17409132573204)" fill="none" stroke="#b666d2"></use><use xlink:href="#bbburst-shape-1" width="25.872672764018652" opacity="0.34720714649465434" transform="matrix(0.982448862203174,-0.18653212365619215,0.18653212365619215,0.982448862203174,559.4843581064305,-149.8531258905046)" fill="#e2d810"></use><use xlink:href="#bbburst-shape-4" width="22.955385696144432" opacity="0.3031634451902979" transform="matrix(0.7148147106633116,-0.6993138990605908,0.6993138990605908,0.7148147106633116,-199.9241424002381,153.4325997857597)" fill="grey"></use><use xlink:href="#bbburst-shape-10" width="7.631645064805825" opacity="0.8978874276814305" transform="matrix(0.8012546459654231,-0.5983234846793368,0.5983234846793368,0.8012546459654231,174.85628000240544,39.18854394817612)" fill="none" stroke="grey"></use><use xlink:href="#bbburst-shape-10" width="8.533979642145496" opacity="0.8664898406983412" transform="matrix(0.919136504570069,0.39393919069662947,-0.39393919069662947,0.919136504570069,502.95022773957453,-1.5645572754270347)" fill="none" stroke="#b666d2"></use><use xlink:href="#bbburst-shape-10" width="10.080349297221124" opacity="0.7962106448475363" transform="matrix(0.8387538587551882,0.5445107569399175,-0.5445107569399175,0.8387538587551882,526.0148288265638,89.00723625856511)" fill="none" stroke="#b666d2"></use><use xlink:href="#bbburst-shape-10" width="9.537423258132169" opacity="0.8001238068897749" transform="matrix(0.8910975752974777,-0.4538117575591846,0.4538117575591846,0.8910975752974777,216.1000248938272,-44.19969348600915)" fill="none" stroke="#e2d810"></use><use xlink:href="#bbburst-shape-1" width="6.404703773066315" opacity="0.9312922883226178" transform="matrix(0.8796950122589592,0.47553831118713213,-0.47553831118713213,0.8796950122589592,608.8550720324718,68.86371683966524)" fill="grey"></use><use xlink:href="#bbburst-shape-4" width="10.559825607968008" opacity="0.7308082523758793" transform="matrix(0.7835253154458729,-0.6213598635697718,0.6213598635697718,0.7835253154458729,216.26463197916948,-9.727785338549324)" fill="grey"></use><use xlink:href="#bbburst-shape-1" width="19.45593156555384" opacity="0.602657942347287" transform="matrix(0.9992267806323871,0.03931718284713882,-0.03931718284713882,0.9992267806323871,549.2181509908954,-107.10405142897042)" fill="#e2d810"></use><use xlink:href="#bbburst-shape-10" width="27.497171701618182" opacity="0.4025087076274465" transform="matrix(0.9264127479360058,0.37650952240502306,-0.37650952240502306,0.9264127479360058,482.0606353353819,-238.75738709302715)" fill="none" stroke="grey"></use><use xlink:href="#bbburst-shape-4" width="26.364405503783082" opacity="0.33428479430798763" transform="matrix(0.758775481658042,-0.6513522614028499,0.6513522614028499,0.758775481658042,-168.24133052633096,71.77950621478573)" fill="#b666d2"></use><use xlink:href="#bbburst-shape-4" width="7.880198196203948" opacity="0.7869503656296264" transform="matrix(0.8918399174942822,0.45235114851605285,-0.45235114851605285,0.8918399174942822,669.4360342798534,68.416831582339)" fill="#e2d810"></use><use xlink:href="#bbburst-shape-10" width="9.630249200524203" opacity="0.7866550133070572" transform="matrix(0.9884210498667049,-0.15173604772894558,0.15173604772894558,0.9884210498667049,426.3496725996034,-22.729270287535257)" fill="none" stroke="#b666d2"></use><use xlink:href="#bbburst-shape-4" width="8.191454633492784" opacity="0.8067761885123397" transform="matrix(0.9636216146776008,0.26727024474515204,-0.26727024474515204,0.9636216146776008,479.99769761795164,-70.40026078297205)" fill="#e2d810"></use><use xlink:href="#bbburst-shape-4" width="8.15399645489608" opacity="0.892659858561387" transform="matrix(0.9745855479938117,0.2240156459750117,-0.2240156459750117,0.9745855479938117,533.5408856841083,3.1075840156174763)" fill="grey"></use><use xlink:href="#bbburst-shape-1" width="18.840852344174127" opacity="0.5836120052162153" transform="matrix(0.9994847822045722,-0.032096263668517255,0.032096263668517255,0.9994847822045722,457.331128507593,170.1663029042748)" fill="#e2d810"></use><use xlink:href="#bbburst-shape-10" width="10.096653609057032" opacity="0.7746485713282671" transform="matrix(0.9920486610397102,-0.125854893148094,0.125854893148094,0.9920486610397102,429.8676277398058,-51.15263357610627)" fill="none" stroke="grey"></use><use xlink:href="#bbburst-shape-10" width="34.82420648773657" opacity="0.282961829032494" transform="matrix(0.7507590318076003,-0.6605761698391145,0.6605761698391145,0.7507590318076003,-109.78471558457883,334.9532880488912)" fill="none" stroke="#b666d2"></use><use xlink:href="#bbburst-shape-4" width="26.322101857548745" opacity="0.21358495195192628" transform="matrix(0.946508414475385,0.3226791306039063,-0.3226791306039063,0.946508414475385,662.9393736300267,-305.04276916200024)" fill="grey"></use><use xlink:href="#bbburst-shape-4" width="28.71105777128502" opacity="0.04495102643204407" transform="matrix(0.8185816209294939,0.5743902243914343,-0.5743902243914343,0.8185816209294939,844.1530604607678,-301.1077450634471)" fill="grey"></use><use xlink:href="#bbburst-shape-1" width="9.924075775402194" opacity="0.8306172236806071" transform="matrix(0.9785304285482939,0.20610240271547609,-0.20610240271547609,0.9785304285482939,440.7786332721289,-59.17025547757811)" fill="grey"></use><use xlink:href="#bbburst-shape-1" width="13.240619839800736" opacity="0.6334877475147684" transform="matrix(0.8821997501795678,-0.47087535588848584,0.47087535588848584,0.8821997501795678,49.51282896415623,-2.3871901915567264)" fill="grey"></use><use xlink:href="#bbburst-shape-1" width="22.032890168760893" opacity="0.4965536322079892" transform="matrix(0.9931079536780482,-0.11720320960366085,0.11720320960366085,0.9931079536780482,526.2934656399899,136.09165988505123)" fill="#e2d810"></use><use xlink:href="#bbburst-shape-10" width="4.984036588548465" opacity="0.9882339253156971" transform="matrix(0.8091723219989001,-0.5875714027340918,0.5875714027340918,0.8091723219989001,159.05751552342218,81.37917603010936)" fill="none" stroke="#b666d2"></use><use xlink:href="#bbburst-shape-4" width="7.6553898001691545" opacity="0.907850364424559" transform="matrix(0.9482797883588963,0.31743573048730195,-0.31743573048730195,0.9482797883588963,559.8596707518677,-0.16791070496634575)" fill="#b666d2"></use><use xlink:href="#bbburst-shape-10" width="6.612252596494336" opacity="0.830259259432846" transform="matrix(0.9998522748117997,0.017188035189319422,-0.017188035189319422,0.9998522748117997,434.2924154351527,69.93452310416382)" fill="none" stroke="grey"></use><use xlink:href="#bbburst-shape-4" width="8.903196543973191" opacity="0.7637011926253079" transform="matrix(0.9836736938644917,-0.17996128472253795,0.17996128472253795,0.9836736938644917,338.93414295462753,112.56813881081956)" fill="grey"></use><use xlink:href="#bbburst-shape-10" width="25.238073104044744" opacity="0.4212980712130744" transform="matrix(0.9780132062943466,0.20854296515071377,-0.20854296515071377,0.9780132062943466,461.47653404096036,266.40199818238796)" fill="none" stroke="grey"></use><use xlink:href="#bbburst-shape-10" width="17.001662068855655" opacity="0.7013699652778944" transform="matrix(0.9276212990024374,-0.3735220550878229,0.3735220550878229,0.9276212990024374,109.63612924366484,13.37992685546834)" fill="none" stroke="grey"></use><use xlink:href="#bbburst-shape-1" width="8.0370955756041" opacity="0.7841836541292259" transform="matrix(0.987481961874948,-0.15773197193848748,0.15773197193848748,0.987481961874948,365.84784633948334,-85.72099605658423)" fill="#b666d2"></use><use xlink:href="#bbburst-shape-4" width="23.598894874112133" opacity="0.3822935918068242" transform="matrix(0.94647252759591,-0.3227843777294827,0.3227843777294827,0.94647252759591,272.31593434336617,-252.44263291667767)" fill="#b666d2"></use><use xlink:href="#bbburst-shape-10" width="18.077734708837372" opacity="0.594205330546725" transform="matrix(0.8489308430474789,0.5285039486349149,-0.5285039486349149,0.8489308430474789,551.7531946127842,230.7052512033119)" fill="none" stroke="#e2d810"></use><use xlink:href="#bbburst-shape-4" width="7.909752545864239" opacity="0.8448218344929681" transform="matrix(0.859356778770676,-0.5113765019835067,0.5113765019835067,0.859356778770676,185.20547242656284,-11.20760374612911)" fill="grey"></use><use xlink:href="#bbburst-shape-1" width="11.048710674293966" opacity="0.7265022795664399" transform="matrix(0.9878462292732134,0.1554343183170749,-0.1554343183170749,0.9878462292732134,524.2293758444384,106.91936888007541)" fill="#b666d2"></use><use xlink:href="#bbburst-shape-4" width="20.246981939510835" opacity="0.28437348991449085" transform="matrix(0.8390520378145548,0.5440511720778137,-0.5440511720778137,0.8390520378145548,929.3371850425717,92.99188822818786)" fill="#e2d810"></use><use xlink:href="#bbburst-shape-4" width="6.7227368848783104" opacity="0.938783289681178" transform="matrix(0.8943121393265081,0.4474436248883701,-0.4474436248883701,0.8943121393265081,557.4590300910995,20.374079143690437)" fill="#b666d2"></use><use xlink:href="#bbburst-shape-8" width="24.625291216631236" opacity="0.3862934554377496" transform="matrix(0.8141780340706236,0.5806153019314031,-0.5806153019314031,0.8141780340706236,366.45551859512045,-36.99561065177414)" fill="none" stroke="grey"></use><use xlink:href="#bbburst-shape-4" width="8.257361615870195" opacity="0.8533891186556839" transform="matrix(0.9514191629088178,0.3078986463917703,-0.3078986463917703,0.9514191629088178,478.0435539418068,69.70893854898452)" fill="grey"></use><use xlink:href="#bbburst-shape-10" width="4.3590603911524575" opacity="0.960731595104304" transform="matrix(0.9221666596117027,-0.3867927764328,0.3867927764328,0.9221666596117027,236.22293613082553,48.17985434743622)" fill="none" stroke="#e2d810"></use><use xlink:href="#bbburst-shape-4" width="32.06755174237385" opacity="0.15963579833502783" transform="matrix(0.9672866607431229,-0.25368586075778576,0.25368586075778576,0.9672866607431229,71.74561751342887,330.8201725634582)" fill="grey"></use><use xlink:href="#bbburst-shape-4" width="18.436404186730652" opacity="0.5162580698665202" transform="matrix(0.7371929128799575,-0.6756823286127612,0.6756823286127612,0.7371929128799575,24.3166710923266,305.4234495788408)" fill="#b666d2"></use><use xlink:href="#bbburst-shape-4" width="7.127816584940835" opacity="0.932410822586092" transform="matrix(0.9980756645784234,0.06200780415672165,-0.06200780415672165,0.9980756645784234,390.86608440717356,2.025451319301112)" fill="#e2d810"></use><use xlink:href="#bbburst-shape-8" width="19.97840410486631" opacity="0.4896062688296542" transform="matrix(0.9965079119180309,-0.0834983921088663,0.0834983921088663,0.9965079119180309,586.1656146025736,10.745795337752668)" fill="none" stroke="#b666d2"></use><use xlink:href="#bbburst-shape-4" width="26.166749964732364" opacity="0.2711210872090979" transform="matrix(0.9000237109076279,-0.43584093406202984,0.43584093406202984,0.9000237109076279,-28.287437171845426,-175.48026005775887)" fill="#b666d2"></use><use xlink:href="#bbburst-shape-10" width="9.43807628248628" opacity="0.7427543197159272" transform="matrix(0.7217832277613615,0.6921191892458918,-0.6921191892458918,0.7217832277613615,713.2308073369157,216.7280748774021)" fill="none" stroke="#b666d2"></use><use xlink:href="#bbburst-shape-4" width="23.450112810661306" opacity="0.5180275481613041" transform="matrix(0.9889932648809401,-0.14796054210544982,0.14796054210544982,0.9889932648809401,170.56011085568048,-141.71415777506348)" fill="#b666d2"></use><use xlink:href="#bbburst-shape-10" width="12.541582911075466" opacity="0.6906999532093169" transform="matrix(0.9213873777230911,-0.3886454684832513,0.3886454684832513,0.9213873777230911,359.26247519324124,103.54264289097472)" fill="none" stroke="#e2d810"></use><use xlink:href="#bbburst-shape-10" width="6.839690583844019" opacity="0.9053773400787196" transform="matrix(0.891697204490538,0.45263240659917364,-0.45263240659917364,0.891697204490538,618.5757549044489,54.6946800557111)" fill="none" stroke="#e2d810"></use><use xlink:href="#bbburst-shape-4" width="25.954264488173273" opacity="0.368619621471421" transform="matrix(0.9526507739373791,-0.3040666093416254,0.3040666093416254,0.9526507739373791,144.64068611687972,-233.98185235824064)" fill="#e2d810"></use><use xlink:href="#bbburst-shape-4" width="5.728890627364084" opacity="0.9626115268102183" transform="matrix(0.8975600256536159,0.44089227748814136,-0.44089227748814136,0.8975600256536159,557.8859959188874,45.22593973883153)" fill="#b666d2"></use><use xlink:href="#bbburst-shape-10" width="24.055067513917553" opacity="0.22537752316894033" transform="matrix(0.9193897169443859,-0.39334787196185766,0.39334787196185766,0.9193897169443859,28.966829149725157,-246.6562229616896)" fill="none" stroke="#b666d2"></use><use xlink:href="#bbburst-shape-10" width="23.786576560230483" opacity="0.498693320101361" transform="matrix(0.9823445448593652,-0.1870807183678926,0.1870807183678926,0.9823445448593652,268.50395661903985,230.3453459657684)" fill="none" stroke="grey"></use><use xlink:href="#bbburst-shape-4" width="9.93192637012844" opacity="0.825854110773486" transform="matrix(0.7161866714514604,-0.6979087702811004,0.6979087702811004,0.7161866714514604,186.83552727059322,80.88570116622179)" fill="grey"></use><use xlink:href="#bbburst-shape-8" width="23.647214845854702" opacity="0.20562561084962638" transform="matrix(0.7819515039115902,-0.6233392700050289,0.6233392700050289,0.7819515039115902,495.0051769951181,42.050080924718316)" fill="none" stroke="grey"></use><use xlink:href="#bbburst-shape-1" width="5.5970360976060185" opacity="0.9092363416263243" transform="matrix(0.9996895802776086,0.024914716221117406,-0.024914716221117406,0.9996895802776086,393.0418605646291,-38.2613790681076)" fill="grey"></use><use xlink:href="#bbburst-shape-4" width="5.193817901914247" opacity="0.9435332044231033" transform="matrix(0.8387294974775751,-0.5445482807437871,0.5445482807437871,0.8387294974775751,203.55918120837202,75.45931702412616)" fill="#b666d2"></use><use xlink:href="#bbburst-shape-4" width="34.11466552365776" opacity="0.025806986213168792" transform="matrix(0.999487088033359,-0.032024379066525756,0.032024379066525756,0.999487088033359,6.036484736554943,-243.3687682350844)" fill="grey"></use><use xlink:href="#bbburst-shape-10" width="6.385309541454332" opacity="0.9181139026371989" transform="matrix(0.9787618126075609,0.2050007662940843,-0.2050007662940843,0.9787618126075609,481.7278794363506,-28.8973982775114)" fill="none" stroke="#e2d810"></use><use xlink:href="#bbburst-shape-1" width="30.669425133477908" opacity="0.037666707418006484" transform="matrix(0.7839211746405412,-0.6208603642931267,0.6208603642931267,0.7839211746405412,-95.9004581246152,-267.39526672683286)" fill="#b666d2"></use><use xlink:href="#bbburst-shape-10" width="23.900144511457228" opacity="0.5051470849863029" transform="matrix(0.9458175045428915,0.32469870357033664,-0.32469870357033664,0.9458175045428915,402.3551439329228,-172.15605627729386)" fill="none" stroke="grey"></use><use xlink:href="#bbburst-shape-10" width="22.446957411767333" opacity="0.4043976278604079" transform="matrix(0.874234218460489,-0.4855044091177525,0.4855044091177525,0.874234218460489,99.14658176010553,305.6700929160652)" fill="none" stroke="#e2d810"></use><use xlink:href="#bbburst-shape-4" width="19.7813554589886" opacity="0.5629467831115764" transform="matrix(0.8868356361772111,-0.46208500777039,0.46208500777039,0.8868356361772111,79.94527319814438,200.48112590015927)" fill="grey"></use><use xlink:href="#bbburst-shape-1" width="7.296750017918406" opacity="0.8211302471452818" transform="matrix(0.8398963401253068,0.5427468450798356,-0.5427468450798356,0.8398963401253068,576.9242669928401,133.49803723578663)" fill="#b666d2"></use><use xlink:href="#bbburst-shape-10" width="12.661812577956399" opacity="0.7064885651711337" transform="matrix(0.7500279748267851,-0.6614061059419027,0.6614061059419027,0.7500279748267851,235.40203555275536,23.675248594901404)" fill="none" stroke="grey"></use><use xlink:href="#bbburst-shape-10" width="14.575025439351302" opacity="0.620652042299209" transform="matrix(0.9843620159902579,0.17615737701156708,-0.17615737701156708,0.9843620159902579,318.06733799254073,-84.75751005618821)" fill="none" stroke="grey"></use><use xlink:href="#bbburst-shape-1" width="28.696496667660917" opacity="0.3967460025816475" transform="matrix(0.792133099968878,-0.610348385705816,0.610348385705816,0.792133099968878,-27.97809043195329,-117.68078924467676)" fill="#e2d810"></use><use xlink:href="#bbburst-shape-10" width="16.853323493707997" opacity="0.592600337336885" transform="matrix(0.9659627074385864,-0.2586813635303403,0.2586813635303403,0.9659627074385864,269.2483000269265,-166.53332024219975)" fill="none" stroke="#e2d810"></use><use xlink:href="#bbburst-shape-1" width="10.473364526476193" opacity="0.8076907902370554" transform="matrix(0.7904701774654456,-0.6125005294183402,0.6125005294183402,0.7904701774654456,92.9357051522575,151.3169597044298)" fill="#e2d810"></use><use xlink:href="#bbburst-shape-8" width="4.3135902724682325" opacity="0.9864343557338952" transform="matrix(0.9977870042222375,0.06649130924573997,-0.06649130924573997,0.9977870042222375,428.402468794703,-3.90577942527392)" fill="none" stroke="grey"></use><use xlink:href="#bbburst-shape-4" width="21.684821031508694" opacity="0.48872822100577973" transform="matrix(0.9999910105017685,0.0042401551447946596,-0.0042401551447946596,0.9999910105017685,448.9814445219266,-222.63091999571287)" fill="grey"></use><use xlink:href="#bbburst-shape-4" width="4.743915477294503" opacity="0.9236903448973328" transform="matrix(0.999877088997504,-0.015678230062009357,0.015678230062009357,0.999877088997504,403.2459287878968,32.306277895603046)" fill="#e2d810"></use><use xlink:href="#bbburst-shape-8" width="8.508240678032612" opacity="0.8800277319515979" transform="matrix(0.9983395482842934,0.057603353474541076,-0.057603353474541076,0.9983395482842934,366.2567209883665,-12.008933759019271)" fill="none" stroke="#b666d2"></use><use xlink:href="#bbburst-shape-4" width="25.103645688062027" opacity="0.17893765559223374" transform="matrix(0.9151769743356929,0.40305223686982133,-0.40305223686982133,0.9151769743356929,182.02912122582524,-7.359468936409826)" fill="grey"></use><use xlink:href="#bbburst-shape-8" width="23.68455004814435" opacity="0.48573012334827803" transform="matrix(0.9963521901635849,-0.08533647025877929,0.08533647025877929,0.9963521901635849,545.0837538909213,-128.1756987394802)" fill="none" stroke="grey"></use><use xlink:href="#bbburst-shape-10" width="5.496262943851438" opacity="0.9579136840828494" transform="matrix(0.9493123680113981,-0.31433426148066007,0.31433426148066007,0.9493123680113981,253.96754411765448,14.375263967585056)" fill="none" stroke="grey"></use><use xlink:href="#bbburst-shape-4" width="9.094571298100062" opacity="0.847941791694657" transform="matrix(0.7470256798217996,-0.6647951817565905,0.6647951817565905,0.7470256798217996,197.60790503084888,89.9290483130722)" fill="grey"></use><use xlink:href="#bbburst-shape-10" width="5.069087230190545" opacity="0.8973138920006993" transform="matrix(0.7944109879174979,-0.6073805909608448,0.6073805909608448,0.7944109879174979,159.41787761202883,129.77539303395287)" fill="none" stroke="#e2d810"></use><use xlink:href="#bbburst-shape-1" width="11.555673478848673" opacity="0.8247025176330607" transform="matrix(0.7083089574358565,0.7059025575928521,-0.7059025575928521,0.7083089574358565,619.8547277263046,59.58269924868597)" fill="#e2d810"></use><use xlink:href="#bbburst-shape-8" width="16.941612014982976" opacity="0.7000001960927797" transform="matrix(0.9064157307995679,0.42238669836902437,-0.42238669836902437,0.9064157307995679,482.7710035908573,-75.97067886628525)" fill="none" stroke="grey"></use><use xlink:href="#bbburst-shape-10" width="16.792048010922546" opacity="0.5014483245250165" transform="matrix(0.9698435419758598,-0.2437283407560941,0.2437283407560941,0.9698435419758598,289.53116143306664,-210.18722790434768)" fill="none" stroke="grey"></use><use xlink:href="#bbburst-shape-4" width="23.217878738865046" opacity="0.31754745985229127" transform="matrix(0.8908603998151663,-0.45427717094430586,0.45427717094430586,0.8908603998151663,162.34717385324416,352.6462259982676)" fill="grey"></use><use xlink:href="#bbburst-shape-1" width="11.302162309819964" opacity="0.6750268159960118" transform="matrix(0.9279753883658903,-0.37264148801116465,0.37264148801116465,0.9279753883658903,300.4909266291068,166.51682538397756)" fill="grey"></use><use xlink:href="#bbburst-shape-10" width="17.639383989987156" opacity="0.5279337503470073" transform="matrix(0.9908531433473267,-0.13494461204035565,0.13494461204035565,0.9908531433473267,357.2131647145706,216.34174758151624)" fill="none" stroke="grey"></use></svg>