<svg xmlns="http://www.w3.org/2000/svg" version="1.1" xmlns:xlink="http://www.w3.org/1999/xlink" xmlns:svgjs="http://svgjs.dev/svgjs" viewBox="0 0 1422 800"><defs><linearGradient x1="50%" y1="0%" x2="50%" y2="100%" id="oooscillate-grad"><stop stop-color="#b666d2" stop-opacity="1" offset="0%"></stop><stop stop-color="#12a4d9" stop-opacity="1" offset="100%"></stop></linearGradient></defs><g stroke-width="1.5" stroke="url(#oooscillate-grad)" fill="none" stroke-linecap="round"><path d="M 0 780 Q 355.5 400 711 400 Q 1066.5 400 1422 780" opacity="0.81"></path><path d="M 0 750 Q 355.5 400 711 400 Q 1066.5 400 1422 750" opacity="0.68"></path><path d="M 0 720 Q 355.5 400 711 400 Q 1066.5 400 1422 720" opacity="0.65"></path><path d="M 0 690 Q 355.5 400 711 400 Q 1066.5 400 1422 690" opacity="0.31"></path><path d="M 0 660 Q 355.5 400 711 400 Q 1066.5 400 1422 660" opacity="0.53"></path><path d="M 0 630 Q 355.5 400 711 400 Q 1066.5 400 1422 630" opacity="0.32"></path><path d="M 0 600 Q 355.5 400 711 400 Q 1066.5 400 1422 600" opacity="0.93"></path><path d="M 0 570 Q 355.5 400 711 400 Q 1066.5 400 1422 570" opacity="0.55"></path><path d="M 0 540 Q 355.5 400 711 400 Q 1066.5 400 1422 540" opacity="0.63"></path><path d="M 0 510 Q 355.5 400 711 400 Q 1066.5 400 1422 510" opacity="0.57"></path><path d="M 0 480 Q 355.5 400 711 400 Q 1066.5 400 1422 480" opacity="0.35"></path><path d="M 0 450 Q 355.5 400 711 400 Q 1066.5 400 1422 450" opacity="0.75"></path><path d="M 0 420 Q 355.5 400 711 400 Q 1066.5 400 1422 420" opacity="0.91"></path><path d="M 0 390 Q 355.5 400 711 400 Q 1066.5 400 1422 390" opacity="0.25"></path><path d="M 0 360 Q 355.5 400 711 400 Q 1066.5 400 1422 360" opacity="0.73"></path><path d="M 0 330 Q 355.5 400 711 400 Q 1066.5 400 1422 330" opacity="0.55"></path><path d="M 0 300 Q 355.5 400 711 400 Q 1066.5 400 1422 300" opacity="0.08"></path><path d="M 0 270 Q 355.5 400 711 400 Q 1066.5 400 1422 270" opacity="0.48"></path><path d="M 0 240 Q 355.5 400 711 400 Q 1066.5 400 1422 240" opacity="0.67"></path><path d="M 0 210 Q 355.5 400 711 400 Q 1066.5 400 1422 210" opacity="0.51"></path><path d="M 0 180 Q 355.5 400 711 400 Q 1066.5 400 1422 180" opacity="0.99"></path><path d="M 0 150 Q 355.5 400 711 400 Q 1066.5 400 1422 150" opacity="0.52"></path><path d="M 0 120 Q 355.5 400 711 400 Q 1066.5 400 1422 120" opacity="0.70"></path><path d="M 0 90 Q 355.5 400 711 400 Q 1066.5 400 1422 90" opacity="0.20"></path><path d="M 0 60 Q 355.5 400 711 400 Q 1066.5 400 1422 60" opacity="0.19"></path></g></svg>