<svg xmlns="http://www.w3.org/2000/svg" version="1.1" xmlns:xlink="http://www.w3.org/1999/xlink" xmlns:svgjs="http://svgjs.dev/svgjs" viewBox="0 0 1422 800"><defs><linearGradient x1="50%" y1="0%" x2="50%" y2="100%" id="oooscillate-grad"><stop stop-color="hsl(0, 0%, 0%)" stop-opacity="1" offset="0%"></stop><stop stop-color="hsl(0, 0%, 62%)" stop-opacity="1" offset="100%"></stop></linearGradient></defs><g stroke-width="1" stroke="hsl(0, 0%, 55%)" fill="none" stroke-linecap="round"><path d="M 0 3330 Q 355.5 400 711 400 Q 1066.5 400 1422 3330" stroke-dasharray="82 106"></path><path d="M 0 3300 Q 355.5 400 711 400 Q 1066.5 400 1422 3300" stroke-dasharray="46 149"></path><path d="M 0 3270 Q 355.5 400 711 400 Q 1066.5 400 1422 3270" stroke-dasharray="123 3"></path><path d="M 0 3240 Q 355.5 400 711 400 Q 1066.5 400 1422 3240" stroke-dasharray="88 6"></path><path d="M 0 3210 Q 355.5 400 711 400 Q 1066.5 400 1422 3210" stroke-dasharray="15 81"></path><path d="M 0 3180 Q 355.5 400 711 400 Q 1066.5 400 1422 3180" stroke-dasharray="65 74"></path><path d="M 0 3150 Q 355.5 400 711 400 Q 1066.5 400 1422 3150" stroke-dasharray="55 113"></path><path d="M 0 3120 Q 355.5 400 711 400 Q 1066.5 400 1422 3120" stroke-dasharray="22 140"></path><path d="M 0 3090 Q 355.5 400 711 400 Q 1066.5 400 1422 3090" stroke-dasharray="146 72"></path><path d="M 0 3060 Q 355.5 400 711 400 Q 1066.5 400 1422 3060" stroke-dasharray="104 144"></path><path d="M 0 3030 Q 355.5 400 711 400 Q 1066.5 400 1422 3030" stroke-dasharray="75 140"></path><path d="M 0 3000 Q 355.5 400 711 400 Q 1066.5 400 1422 3000" stroke-dasharray="48 66"></path><path d="M 0 2970 Q 355.5 400 711 400 Q 1066.5 400 1422 2970" stroke-dasharray="49 80"></path><path d="M 0 2940 Q 355.5 400 711 400 Q 1066.5 400 1422 2940" stroke-dasharray="123 138"></path><path d="M 0 2910 Q 355.5 400 711 400 Q 1066.5 400 1422 2910" stroke-dasharray="5 24"></path><path d="M 0 2880 Q 355.5 400 711 400 Q 1066.5 400 1422 2880" stroke-dasharray="105 13"></path><path d="M 0 2850 Q 355.5 400 711 400 Q 1066.5 400 1422 2850" stroke-dasharray="146 137"></path><path d="M 0 2820 Q 355.5 400 711 400 Q 1066.5 400 1422 2820" stroke-dasharray="7 13"></path><path d="M 0 2790 Q 355.5 400 711 400 Q 1066.5 400 1422 2790" stroke-dasharray="148 72"></path><path d="M 0 2760 Q 355.5 400 711 400 Q 1066.5 400 1422 2760" stroke-dasharray="6 60"></path><path d="M 0 2730 Q 355.5 400 711 400 Q 1066.5 400 1422 2730" stroke-dasharray="15 36"></path><path d="M 0 2700 Q 355.5 400 711 400 Q 1066.5 400 1422 2700" stroke-dasharray="137 20"></path><path d="M 0 2670 Q 355.5 400 711 400 Q 1066.5 400 1422 2670" stroke-dasharray="75 126"></path><path d="M 0 2640 Q 355.5 400 711 400 Q 1066.5 400 1422 2640" stroke-dasharray="40 6"></path><path d="M 0 2610 Q 355.5 400 711 400 Q 1066.5 400 1422 2610" stroke-dasharray="46 16"></path><path d="M 0 2580 Q 355.5 400 711 400 Q 1066.5 400 1422 2580" stroke-dasharray="148 92"></path><path d="M 0 2550 Q 355.5 400 711 400 Q 1066.5 400 1422 2550" stroke-dasharray="82 56"></path><path d="M 0 2520 Q 355.5 400 711 400 Q 1066.5 400 1422 2520" stroke-dasharray="146 98"></path><path d="M 0 2490 Q 355.5 400 711 400 Q 1066.5 400 1422 2490" stroke-dasharray="45 40"></path><path d="M 0 2460 Q 355.5 400 711 400 Q 1066.5 400 1422 2460" stroke-dasharray="1 130"></path><path d="M 0 2430 Q 355.5 400 711 400 Q 1066.5 400 1422 2430" stroke-dasharray="99 63"></path><path d="M 0 2400 Q 355.5 400 711 400 Q 1066.5 400 1422 2400" stroke-dasharray="137 77"></path><path d="M 0 2370 Q 355.5 400 711 400 Q 1066.5 400 1422 2370" stroke-dasharray="26 109"></path><path d="M 0 2340 Q 355.5 400 711 400 Q 1066.5 400 1422 2340" stroke-dasharray="79 44"></path><path d="M 0 2310 Q 355.5 400 711 400 Q 1066.5 400 1422 2310" stroke-dasharray="63 95"></path><path d="M 0 2280 Q 355.5 400 711 400 Q 1066.5 400 1422 2280" stroke-dasharray="13 93"></path><path d="M 0 2250 Q 355.5 400 711 400 Q 1066.5 400 1422 2250" stroke-dasharray="41 142"></path><path d="M 0 2220 Q 355.5 400 711 400 Q 1066.5 400 1422 2220" stroke-dasharray="31 75"></path><path d="M 0 2190 Q 355.5 400 711 400 Q 1066.5 400 1422 2190" stroke-dasharray="2 19"></path><path d="M 0 2160 Q 355.5 400 711 400 Q 1066.5 400 1422 2160" stroke-dasharray="4 121"></path><path d="M 0 2130 Q 355.5 400 711 400 Q 1066.5 400 1422 2130" stroke-dasharray="64 90"></path><path d="M 0 2100 Q 355.5 400 711 400 Q 1066.5 400 1422 2100" stroke-dasharray="114 142"></path><path d="M 0 2070 Q 355.5 400 711 400 Q 1066.5 400 1422 2070" stroke-dasharray="22 102"></path><path d="M 0 2040 Q 355.5 400 711 400 Q 1066.5 400 1422 2040" stroke-dasharray="35 80"></path><path d="M 0 2010 Q 355.5 400 711 400 Q 1066.5 400 1422 2010" stroke-dasharray="118 117"></path><path d="M 0 1980 Q 355.5 400 711 400 Q 1066.5 400 1422 1980" stroke-dasharray="13 146"></path><path d="M 0 1950 Q 355.5 400 711 400 Q 1066.5 400 1422 1950" stroke-dasharray="67 125"></path><path d="M 0 1920 Q 355.5 400 711 400 Q 1066.5 400 1422 1920" stroke-dasharray="23 41"></path><path d="M 0 1890 Q 355.5 400 711 400 Q 1066.5 400 1422 1890" stroke-dasharray="143 148"></path><path d="M 0 1860 Q 355.5 400 711 400 Q 1066.5 400 1422 1860" stroke-dasharray="61 123"></path><path d="M 0 1830 Q 355.5 400 711 400 Q 1066.5 400 1422 1830" stroke-dasharray="27 136"></path><path d="M 0 1800 Q 355.5 400 711 400 Q 1066.5 400 1422 1800" stroke-dasharray="104 136"></path><path d="M 0 1770 Q 355.5 400 711 400 Q 1066.5 400 1422 1770" stroke-dasharray="41 33"></path><path d="M 0 1740 Q 355.5 400 711 400 Q 1066.5 400 1422 1740" stroke-dasharray="135 89"></path><path d="M 0 1710 Q 355.5 400 711 400 Q 1066.5 400 1422 1710" stroke-dasharray="126 76"></path><path d="M 0 1680 Q 355.5 400 711 400 Q 1066.5 400 1422 1680" stroke-dasharray="91 50"></path><path d="M 0 1650 Q 355.5 400 711 400 Q 1066.5 400 1422 1650" stroke-dasharray="99 30"></path><path d="M 0 1620 Q 355.5 400 711 400 Q 1066.5 400 1422 1620" stroke-dasharray="39 36"></path><path d="M 0 1590 Q 355.5 400 711 400 Q 1066.5 400 1422 1590" stroke-dasharray="19 138"></path><path d="M 0 1560 Q 355.5 400 711 400 Q 1066.5 400 1422 1560" stroke-dasharray="12 79"></path><path d="M 0 1530 Q 355.5 400 711 400 Q 1066.5 400 1422 1530" stroke-dasharray="53 25"></path><path d="M 0 1500 Q 355.5 400 711 400 Q 1066.5 400 1422 1500" stroke-dasharray="19 93"></path><path d="M 0 1470 Q 355.5 400 711 400 Q 1066.5 400 1422 1470" stroke-dasharray="30 35"></path><path d="M 0 1440 Q 355.5 400 711 400 Q 1066.5 400 1422 1440" stroke-dasharray="56 137"></path><path d="M 0 1410 Q 355.5 400 711 400 Q 1066.5 400 1422 1410" stroke-dasharray="74 40"></path><path d="M 0 1380 Q 355.5 400 711 400 Q 1066.5 400 1422 1380" stroke-dasharray="82 72"></path><path d="M 0 1350 Q 355.5 400 711 400 Q 1066.5 400 1422 1350" stroke-dasharray="70 74"></path><path d="M 0 1320 Q 355.5 400 711 400 Q 1066.5 400 1422 1320" stroke-dasharray="98 100"></path><path d="M 0 1290 Q 355.5 400 711 400 Q 1066.5 400 1422 1290" stroke-dasharray="23 52"></path><path d="M 0 1260 Q 355.5 400 711 400 Q 1066.5 400 1422 1260" stroke-dasharray="67 149"></path><path d="M 0 1230 Q 355.5 400 711 400 Q 1066.5 400 1422 1230" stroke-dasharray="67 100"></path><path d="M 0 1200 Q 355.5 400 711 400 Q 1066.5 400 1422 1200" stroke-dasharray="58 62"></path><path d="M 0 1170 Q 355.5 400 711 400 Q 1066.5 400 1422 1170" stroke-dasharray="118 43"></path><path d="M 0 1140 Q 355.5 400 711 400 Q 1066.5 400 1422 1140" stroke-dasharray="71 24"></path><path d="M 0 1110 Q 355.5 400 711 400 Q 1066.5 400 1422 1110" stroke-dasharray="77 111"></path><path d="M 0 1080 Q 355.5 400 711 400 Q 1066.5 400 1422 1080" stroke-dasharray="34 3"></path><path d="M 0 1050 Q 355.5 400 711 400 Q 1066.5 400 1422 1050" stroke-dasharray="109 43"></path><path d="M 0 1020 Q 355.5 400 711 400 Q 1066.5 400 1422 1020" stroke-dasharray="117 64"></path><path d="M 0 990 Q 355.5 400 711 400 Q 1066.5 400 1422 990" stroke-dasharray="6 134"></path><path d="M 0 960 Q 355.5 400 711 400 Q 1066.5 400 1422 960" stroke-dasharray="146 58"></path><path d="M 0 930 Q 355.5 400 711 400 Q 1066.5 400 1422 930" stroke-dasharray="37 56"></path><path d="M 0 900 Q 355.5 400 711 400 Q 1066.5 400 1422 900" stroke-dasharray="142 88"></path><path d="M 0 870 Q 355.5 400 711 400 Q 1066.5 400 1422 870" stroke-dasharray="135 137"></path><path d="M 0 840 Q 355.5 400 711 400 Q 1066.5 400 1422 840" stroke-dasharray="84 17"></path><path d="M 0 810 Q 355.5 400 711 400 Q 1066.5 400 1422 810" stroke-dasharray="34 131"></path><path d="M 0 780 Q 355.5 400 711 400 Q 1066.5 400 1422 780" stroke-dasharray="53 91"></path><path d="M 0 750 Q 355.5 400 711 400 Q 1066.5 400 1422 750" stroke-dasharray="133 20"></path><path d="M 0 720 Q 355.5 400 711 400 Q 1066.5 400 1422 720" stroke-dasharray="83 80"></path><path d="M 0 690 Q 355.5 400 711 400 Q 1066.5 400 1422 690" stroke-dasharray="24 117"></path><path d="M 0 660 Q 355.5 400 711 400 Q 1066.5 400 1422 660" stroke-dasharray="94 92"></path><path d="M 0 630 Q 355.5 400 711 400 Q 1066.5 400 1422 630" stroke-dasharray="4 121"></path><path d="M 0 600 Q 355.5 400 711 400 Q 1066.5 400 1422 600" stroke-dasharray="18 135"></path><path d="M 0 570 Q 355.5 400 711 400 Q 1066.5 400 1422 570" stroke-dasharray="150 128"></path><path d="M 0 540 Q 355.5 400 711 400 Q 1066.5 400 1422 540" stroke-dasharray="103 87"></path><path d="M 0 510 Q 355.5 400 711 400 Q 1066.5 400 1422 510" stroke-dasharray="20 149"></path><path d="M 0 480 Q 355.5 400 711 400 Q 1066.5 400 1422 480" stroke-dasharray="123 66"></path><path d="M 0 450 Q 355.5 400 711 400 Q 1066.5 400 1422 450" stroke-dasharray="112 127"></path><path d="M 0 420 Q 355.5 400 711 400 Q 1066.5 400 1422 420" stroke-dasharray="61 84"></path><path d="M 0 390 Q 355.5 400 711 400 Q 1066.5 400 1422 390" stroke-dasharray="78 16"></path><path d="M 0 360 Q 355.5 400 711 400 Q 1066.5 400 1422 360" stroke-dasharray="130 41"></path><path d="M 0 330 Q 355.5 400 711 400 Q 1066.5 400 1422 330" stroke-dasharray="117 3"></path><path d="M 0 300 Q 355.5 400 711 400 Q 1066.5 400 1422 300" stroke-dasharray="42 68"></path><path d="M 0 270 Q 355.5 400 711 400 Q 1066.5 400 1422 270" stroke-dasharray="109 33"></path><path d="M 0 240 Q 355.5 400 711 400 Q 1066.5 400 1422 240" stroke-dasharray="140 40"></path><path d="M 0 210 Q 355.5 400 711 400 Q 1066.5 400 1422 210" stroke-dasharray="114 120"></path><path d="M 0 180 Q 355.5 400 711 400 Q 1066.5 400 1422 180" stroke-dasharray="54 95"></path><path d="M 0 150 Q 355.5 400 711 400 Q 1066.5 400 1422 150" stroke-dasharray="98 89"></path><path d="M 0 120 Q 355.5 400 711 400 Q 1066.5 400 1422 120" stroke-dasharray="14 15"></path><path d="M 0 90 Q 355.5 400 711 400 Q 1066.5 400 1422 90" stroke-dasharray="102 41"></path><path d="M 0 60 Q 355.5 400 711 400 Q 1066.5 400 1422 60" stroke-dasharray="10 71"></path></g></svg>