<svg xmlns="http://www.w3.org/2000/svg" version="1.1" xmlns:xlink="http://www.w3.org/1999/xlink" xmlns:svgjs="http://svgjs.dev/svgjs" viewBox="0 0 1422 800"><defs><linearGradient x1="50%" y1="0%" x2="50%" y2="100%" id="oooscillate-grad"><stop stop-color="#12a4d9" stop-opacity="1" offset="0%"></stop><stop stop-color="#b666d2" stop-opacity="1" offset="100%"></stop></linearGradient></defs><g stroke-width="1" stroke="url(#oooscillate-grad)" fill="none" stroke-linecap="round"><path d="M 0 969 Q 355.5 95 711 400 Q 1066.5 705 1422 969" opacity="0.37"></path><path d="M 0 912 Q 355.5 95 711 400 Q 1066.5 705 1422 912" opacity="0.59"></path><path d="M 0 855 Q 355.5 95 711 400 Q 1066.5 705 1422 855" opacity="0.90"></path><path d="M 0 798 Q 355.5 95 711 400 Q 1066.5 705 1422 798" opacity="0.62"></path><path d="M 0 741 Q 355.5 95 711 400 Q 1066.5 705 1422 741" opacity="0.39"></path><path d="M 0 684 Q 355.5 95 711 400 Q 1066.5 705 1422 684" opacity="0.83"></path><path d="M 0 627 Q 355.5 95 711 400 Q 1066.5 705 1422 627" opacity="0.24"></path><path d="M 0 570 Q 355.5 95 711 400 Q 1066.5 705 1422 570" opacity="0.82"></path><path d="M 0 513 Q 355.5 95 711 400 Q 1066.5 705 1422 513" opacity="0.83"></path><path d="M 0 456 Q 355.5 95 711 400 Q 1066.5 705 1422 456" opacity="0.42"></path><path d="M 0 399 Q 355.5 95 711 400 Q 1066.5 705 1422 399" opacity="0.44"></path><path d="M 0 342 Q 355.5 95 711 400 Q 1066.5 705 1422 342" opacity="0.29"></path><path d="M 0 285 Q 355.5 95 711 400 Q 1066.5 705 1422 285" opacity="0.84"></path><path d="M 0 228 Q 355.5 95 711 400 Q 1066.5 705 1422 228" opacity="0.75"></path><path d="M 0 171 Q 355.5 95 711 400 Q 1066.5 705 1422 171" opacity="0.68"></path><path d="M 0 114 Q 355.5 95 711 400 Q 1066.5 705 1422 114" opacity="0.69"></path></g></svg>