<svg
              xmlns="http://www.w3.org/2000/svg"
              version="1.1"
              xmlnsXlink="http://www.w3.org/1999/xlink"
              xmlnsSvgjs="http://svgjs.dev/svgjs"
              viewBox="0 0 800 800"
            >
              <defs>
                <linearGradient
                  x1="50%"
                  y1="0%"
                  x2="50%"
                  y2="100%"
                  id="cccloud-grad"
                >
                  <stop
                    stop-color="#b666d2"
                    stop-opacity="1"
                    offset="0%"
                  ></stop>
                  <stop
                    stop-color="hsla(0, 0%, 100%, 1.00)"
                    stop-opacity="1"
                    offset="100%"
                  ></stop>
                </linearGradient>
              </defs>
              <g
                fill="url(#cccloud-grad)"
                stroke-width="1"
                stroke="hsla(0, 0%, 100%, 1.00)"
                id="cloud"
                transform="matrix(1,0,0,1,0,80)"
              >
                <path
                  d="M 215.96858367121035 440.0523632109477 A  61 61 0 1 1 186.38743455497388 229.31937172774872 A  61 61 0 1 1 360.4712041884817 208.37696335078533 A  61 61 0 1 1 592.9319611394592 261.2565523317347 A  61 61 0 1 1 695.2879462916189 350.7853340827982 A  61 61 0 1 1 563.6125865357085 459.1623154884858 A  61 61 0 1 1 339.52880827419415 470.9424213189729 A  61 61 0 1 1 215.96858367121035 440.0523632109477 Z"
                  stroke-linecap="round"
                  stroke-linejoin="round"
                ></path>
              </g>
            </svg>