<svg xmlns="http://www.w3.org/2000/svg" version="1.1" xmlns:xlink="http://www.w3.org/1999/xlink" viewBox="0 0 700 700" style="overflow: hidden; display: block;" width="700" height="700"><defs><linearGradient id="two-587" x1="350" y1="-350" x2="350" y2="350" spreadMethod="pad" gradientUnits="userSpaceOnUse"><stop offset="0%" stop-color="#e2d810" stop-opacity="1"></stop><stop offset="100%" stop-color="#b666d2" stop-opacity="1"></stop></linearGradient></defs><g id="two-0" transform="matrix(1 0 0 1 0 0)" opacity="1"><path transform="matrix(1 0 0 1 350 350)" id="two-597" d="M 286.984464 68.016567 C 248.226179 94.347555 165.449352 30.664539 145.077926 72.860873 C 122.060689 120.537606 266.847066 155.887092 240.515713 201.816646 C 224.313094 230.078736 167.692335 170.740578 142.366266 191.231082 C 113.47873 214.603055 163.780715 286.112306 130.803556 303.236728 C 102.012133 318.187577 77.441283 255.906287 45.006212 255.242915 C 22.186205 254.776193 3.746436 276.343247 -16.687487 286.513073 C -43.29695 299.756425 -72.548514 342.027318 -97.61387 326.05303 C -142.752558 297.285899 -52.232408 196.570529 -94.616319 163.880271 C -116.826273 146.74997 -157.034704 207.265052 -176.411665 186.98544 C -198.225506 164.15543 -136.405347 126.188435 -146.237973 96.182227 C -151.28131 80.791481 -181.081843 83.139452 -186.277189 67.799352 C -191.57097 52.168611 -164.735463 35.114975 -171.449309 20.03955 C -188.675813 -18.641242 -276.198071 7.009133 -287.984868 -33.660604 C -294.287066 -55.406014 -253.393499 -68.764165 -250.684726 -91.241779 C -246.692328 -124.371007 -298.149063 -156.554903 -283.924661 -186.740187 C -271.949194 -212.153055 -225.404786 -198.020784 -204.104967 -216.338626 C -184.074246 -233.565044 -184.250338 -267.933177 -165.347412 -286.390118 C -147.00847 -304.296382 -121.516388 -327.972315 -96.507723 -322.358244 C -51.563059 -312.268837 -48.978221 -238.895229 -12.291678 -211.039951 C 0.785172 -201.110989 17.660943 -191.094654 33.992975 -192.783742 C 60.96159 -195.572886 78.622557 -250.523599 102.634314 -237.933086 C 131.007779 -223.055521 78.060906 -158.403784 104.878274 -140.875972 C 141.754716 -116.773557 185.182061 -200.367668 228.358412 -191.61546 C 251.747068 -186.874383 273.604508 -163.435277 279.264269 -140.251788 C 285.819793 -113.399079 247.510724 -87.063929 254.348564 -60.281718 C 261.426312 -32.559847 311.111416 -28.067385 316.662861 -0.000001 C 321.414517 24.023752 307.241187 54.254877 286.984464 68.016567 Z " fill="url(#two-587)" stroke="undefined" stroke-width="1" stroke-opacity="1" fill-opacity="1" visibility="visible" stroke-linecap="butt" stroke-linejoin="miter" stroke-miterlimit="4"></path></g></svg>