<svg xmlns="http://www.w3.org/2000/svg" version="1.1" xmlns:xlink="http://www.w3.org/1999/xlink" viewBox="0 0 700 700" style="overflow: hidden; display: block;" width="700" height="700"><defs><linearGradient id="two-261" x1="350" y1="-350" x2="350" y2="350" spreadMethod="pad" gradientUnits="userSpaceOnUse"><stop offset="0%" stop-color="#e2d810" stop-opacity="1"></stop><stop offset="100%" stop-color="#b666d2" stop-opacity="1"></stop></linearGradient></defs><g id="two-0" transform="matrix(1 0 0 1 0 0)" opacity="1"><path transform="matrix(1 0 0 1 350 350)" id="two-260" d="M 273.873122 58.213529 C 269.116864 84.284623 303.208217 107.509768 300.734024 133.895414 C 298.614701 156.496605 281.424885 176.590955 266.075106 193.31488 C 250.707357 210.058385 228.932803 220.753492 209.771909 232.975307 C 191.637424 244.542424 173.228138 257.45171 153.268798 265.469345 C 133.701845 273.32936 111.706167 275.737477 91.232568 280.784973 C 71.380011 285.67936 51.481892 294.425643 31.068483 295.596876 C 10.704149 296.765294 -9.920014 286.085363 -30.247135 287.782264 C -54.343396 289.793811 -76.420078 312.148982 -100.390155 308.969127 C -122.498559 306.03624 -139.686668 286.312452 -157.752686 273.235666 C -175.300172 260.534212 -198.899246 250.747799 -208.128785 231.150432 C -219.323794 207.379722 -202.86422 177.179817 -208.563775 151.530452 C -212.400928 134.262343 -217.723647 114.537628 -230.999894 102.847778 C -257.465376 79.544695 -320.202315 103.652618 -332.926666 70.765747 C -342.679081 45.560026 -298.636558 26.121327 -291.700117 0 C -286.439202 -19.811611 -290.201775 -41.71518 -292.221688 -62.113638 C -294.682335 -86.962923 -319.188422 -114.964728 -306.438559 -136.435237 C -291.869751 -160.968812 -245.740421 -144.222808 -224.096878 -162.815913 C -208.59574 -176.132323 -205.870506 -200.091622 -196.528234 -218.266717 C -185.661893 -239.406842 -181.913643 -267.82703 -162.743655 -281.880279 C -144.575903 -295.198803 -117.714473 -289.904943 -95.615797 -294.275165 C -74.678283 -298.415755 -52.866734 -313.444086 -32.33259 -307.62404 C -6.575097 -300.323527 0.940885 -259.822899 26.456594 -251.71768 C 44.920708 -245.852442 65.230182 -261.692434 84.546465 -260.207266 C 103.74703 -258.730995 123.041033 -251.543151 140.319627 -243.040725 C 157.715152 -234.48076 176.665654 -224.626745 188.271599 -209.096796 C 200.366637 -192.91239 192.167417 -163.651235 208.040212 -151.150062 C 236.377199 -128.832279 294.088756 -169.041769 316.879731 -141.083947 C 332.721963 -121.650187 307.125327 -90.606612 308.48597 -65.570718 C 309.689042 -43.434142 328.398312 -21.526804 323.1 -0.000001 C 317.087333 24.429195 278.388325 33.463767 273.873122 58.213529 Z " fill="url(#two-261)" stroke="undefined" stroke-width="1" stroke-opacity="1" fill-opacity="1" visibility="visible" stroke-linecap="butt" stroke-linejoin="miter" stroke-miterlimit="4"></path></g></svg>